<?xml version="1.0" encoding="UTF-8"?>
<svg width="80px" height="80px" viewBox="0 0 80 80" version="1.1" xmlns="http://www.w3.org/2000/svg" xmlns:xlink="http://www.w3.org/1999/xlink">
    <!-- Generator: Sketch 63.1 (92452) - https://sketch.com -->
    <title>Group 7</title>
    <desc>Created with Sketch.</desc>
    <g id="Page-2" stroke="none" stroke-width="1" fill="none" fill-rule="evenodd">
        <g id="Desktop-HD" transform="translate(-88.000000, -179.000000)">
            <g id="Group-7" transform="translate(88.000000, 179.000000)">
                <g id="Group-2-Copy" fill="#FCD800" fill-opacity="0.2">
                    <g id="Group-40-Copy-5">
                        <path d="M40,0 C62.09139,0 80,17.90861 80,40 C80,62.09139 62.09139,80 40,80 C17.90861,80 0,62.09139 0,40 C0,17.90861 17.90861,0 40,0 Z M40,8 C22.326888,8 8,22.326888 8,40 C8,57.673112 22.326888,72 40,72 C57.673112,72 72,57.673112 72,40 C72,22.326888 57.673112,8 40,8 Z" id="Combined-Shape"></path>
                    </g>
                </g>
                <g id="chair" transform="translate(17.000000, 20.000000)" fill="#000000" fill-rule="nonzero">
                    <rect id="Rectangle" x="22.2760291" y="31.4769976" width="1.5496368" height="1.5496368"></rect>
                    <rect id="Rectangle" x="22.2760291" y="28.377724" width="1.5496368" height="1.5496368"></rect>
                    <path d="M43.9709443,14.4309927 L37.7723971,14.4309927 L37.7723971,12.8813559 L40.0968523,12.8813559 C41.3806135,12.8813559 42.4213075,11.8406619 42.4213075,10.5569007 L42.4213075,5.90799031 C42.4213075,5.48006993 42.0744095,5.13317191 41.6464891,5.13317191 L29.2493947,5.13317191 C28.8214743,5.13317191 28.4745763,5.48006993 28.4745763,5.90799031 L28.4745763,6.68280872 L27.6997579,6.68280872 C24.7059079,6.68665055 22.2798709,9.1126876 22.2760291,12.1065375 L22.2760291,14.4309927 L20.2382567,14.4309927 L4.18634383,0.672542373 C3.2220656,-0.196402965 1.7522329,-0.179547085 0.808135593,0.711283293 C0.340802954,1.15735563 0.0763949685,1.77525772 0.0763949685,2.42130751 C0.0763949685,3.06735729 0.340802954,3.68525938 0.808135593,4.13133172 L3.36116223,6.68280872 L3.1325908,6.91138015 C2.50838114,7.49276956 2.15650475,8.30922398 2.16251816,9.1622276 C2.20465855,9.94590423 2.58103511,10.6738289 3.19612591,11.1612591 L16.3556416,22.0001937 C16.495498,22.1155243 16.6710248,22.1787797 16.8523002,22.1791768 L18.401937,22.1791768 L18.401937,23.7288136 L15.3026634,23.7288136 L15.3026634,25.2784504 C13.5909819,25.2784504 12.2033898,26.6660424 12.2033898,28.377724 C12.2033898,30.0894055 13.5909819,31.4769976 15.3026634,31.4769976 L18.401937,31.4769976 L18.401937,34.5762712 L11.4285714,34.5762712 C10.1448103,34.5762712 9.10411622,35.6169652 9.10411622,36.9007264 L9.10411622,40 L36.9975787,40 L36.9975787,36.9007264 C36.9975787,35.6169652 35.9568846,34.5762712 34.6731235,34.5762712 L27.6997579,34.5762712 L27.6997579,25.2784504 L30.7990315,25.2784504 C32.0827926,25.2784504 33.1234867,24.2377563 33.1234867,22.9539952 L33.1234867,22.1791768 L38.5472155,22.1791768 C39.8736334,22.2330626 41.087761,21.438276 41.5690073,20.2010654 L42.1253269,19.0799031 L43.9709443,19.0799031 C45.2547055,19.0799031 46.2953995,18.0392091 46.2953995,16.7554479 C46.2953995,15.4716868 45.2547055,14.4309927 43.9709443,14.4309927 Z M39.3220339,6.68280872 L40.8716707,6.68280872 L40.8716707,10.5569007 C40.8716707,10.9848211 40.5247727,11.3317191 40.0968523,11.3317191 C39.6689319,11.3317191 39.3220339,10.9848211 39.3220339,10.5569007 L39.3220339,6.68280872 Z M30.0242131,6.68280872 L37.7723971,6.68280872 L37.7723971,10.5569007 C37.7749652,10.8214545 37.8231959,11.0835781 37.9149637,11.3317191 L30.7990315,11.3317191 C30.3711111,11.3317191 30.0242131,10.9848211 30.0242131,10.5569007 L30.0242131,6.68280872 Z M36.2227603,12.8813559 L36.2227603,14.4309927 L33.1234867,14.4309927 L33.1234867,12.8813559 L36.2227603,12.8813559 Z M28.6171429,11.3317191 C28.9443135,12.2571242 29.8175028,12.8772871 30.7990315,12.8813559 L31.5738499,12.8813559 L31.5738499,14.4309927 L26.9249395,14.4309927 L26.9249395,12.1065375 C26.9249395,11.6786171 27.2718375,11.3317191 27.6997579,11.3317191 L28.6171429,11.3317191 Z M23.8256659,12.1065375 C23.8282275,9.96799756 25.5612179,8.23500716 27.6997579,8.23244552 L28.4745763,8.23244552 L28.4745763,9.78208232 L27.6997579,9.78208232 C26.4159967,9.78208232 25.3753027,10.8227764 25.3753027,12.1065375 L25.3753027,14.4309927 L23.8256659,14.4309927 L23.8256659,12.1065375 Z M4.18401937,9.96881356 C3.91014472,9.761024 3.73815,9.44607629 3.71138015,9.1033414 C3.72433819,8.68163167 3.91144308,8.28413898 4.22818402,8.00542373 L4.49627119,7.73733656 L8.73995157,11.3789831 L7.50024213,12.6186925 L4.18401937,9.96881356 Z M16.5966102,20.1832446 L8.70198547,13.6042615 L9.93084746,12.3753995 L17.4318644,18.5127361 L16.5966102,20.1832446 Z M16.8523002,25.2784504 L18.401937,25.2784504 L18.401937,26.8280872 L16.8523002,26.8280872 L16.8523002,25.2784504 Z M15.3026634,29.9273608 C14.4468227,29.9273608 13.7530266,29.2335647 13.7530266,28.377724 C13.7530266,27.5218832 14.4468227,26.8280872 15.3026634,26.8280872 L15.3026634,28.377724 L18.401937,28.377724 L18.401937,29.9273608 L15.3026634,29.9273608 Z M34.6731235,36.125908 C35.1010439,36.125908 35.4479419,36.472806 35.4479419,36.9007264 L35.4479419,38.4503632 L10.653753,38.4503632 L10.653753,36.9007264 C10.653753,36.472806 11.000651,36.125908 11.4285714,36.125908 L34.6731235,36.125908 Z M19.9515738,34.5762712 L19.9515738,22.1791768 L26.1501211,22.1791768 L26.1501211,34.5762712 L19.9515738,34.5762712 Z M31.5738499,22.9539952 C31.5738499,23.3819155 31.2269519,23.7288136 30.7990315,23.7288136 L27.6997579,23.7288136 L27.6997579,22.1791768 L31.5738499,22.1791768 L31.5738499,22.9539952 Z M40.1743341,19.5083777 C39.9582301,20.2146794 39.2841708,20.6791384 38.5472155,20.62954 L18.1059564,20.62954 L18.8807748,19.0799031 L40.3928329,19.0799031 L40.1743341,19.5083777 Z M43.9709443,17.5302663 L18.6785472,17.5302663 L1.90372881,3.0357385 C1.73046023,2.8784518 1.63165563,2.65531842 1.63165563,2.42130751 C1.63165563,2.18729659 1.73046023,1.96416321 1.90372881,1.80687651 C2.27543338,1.49134124 2.82574783,1.50875837 3.17675545,1.84716707 L19.4479419,15.7938983 C19.5879712,15.9145629 19.7667277,15.9808403 19.9515738,15.9806295 L43.9709443,15.9806295 C44.3988647,15.9806295 44.7457627,16.3275276 44.7457627,16.7554479 C44.7457627,17.1833683 44.3988647,17.5302663 43.9709443,17.5302663 L43.9709443,17.5302663 Z" id="Shape"></path>
                </g>
            </g>
        </g>
    </g>
</svg>