<?xml version="1.0" encoding="UTF-8"?>
<svg width="80px" height="80px" viewBox="0 0 80 80" version="1.1" xmlns="http://www.w3.org/2000/svg" xmlns:xlink="http://www.w3.org/1999/xlink">
    <!-- Generator: Sketch 62 (91390) - https://sketch.com -->
    <title>Group 43</title>
    <desc>Created with Sketch.</desc>
    <g id="Page-1" stroke="none" stroke-width="1" fill="none" fill-rule="evenodd">
        <g id="Home_Final" transform="translate(-924.000000, -1423.000000)">
            <g id="Group-43" transform="translate(924.000000, 1423.000000)">
                <g id="Group-7-Copy" fill="#FCD800" fill-opacity="0.2">
                    <path d="M40,0 C62.09139,0 80,17.90861 80,40 C80,62.09139 62.09139,80 40,80 C17.90861,80 0,62.09139 0,40 C0,17.90861 17.90861,0 40,0 Z M40,8 C22.326888,8 8,22.326888 8,40 C8,57.673112 22.326888,72 40,72 C57.673112,72 72,57.673112 72,40 C72,22.326888 57.673112,8 40,8 Z" id="Combined-Shape"></path>
                </g>
                <g id="Group-21" transform="translate(20.000000, 27.000000)" fill-rule="nonzero">
                    <polyline id="Path" fill="#FFFFFF" points="34.8873562 21.7223001 38.8368654 21.7223001 38.8368654 14.4815077 32.9126017 5.26596073 25.6718093 5.26596073 25.6718093 21.7223001 28.3047896 21.7223001"></polyline>
                    <polyline id="Path" fill="#FFFFFF" points="5.92426367 21.7223001 0.658225806 21.7223001 0.658225806 0.658225806 25.6718093 0.658225806 25.6718093 21.7223001 12.5067532 21.7223001"></polyline>
                    <rect id="Rectangle" fill="#F46B27" x="0.658225806" y="18.4310168" width="3.94950912" height="1.31652875"></rect>
                    <rect id="Rectangle" fill="#F46B27" x="13.8232819" y="18.4310168" width="11.8485273" height="1.31652875"></rect>
                    <rect id="Rectangle" fill="#DBDBDB" x="36.2038079" y="18.4310168" width="2.63298036" height="1.31652875"></rect>
                    <rect id="Rectangle" fill="#F46B27" x="2.63298036" y="2.63298036" width="23.0388289" height="1.31652875"></rect>
                    <circle id="Oval" fill="#FFFFFF" cx="9.21554698" cy="21.7223001" r="3.29128331"></circle>
                    <circle id="Oval" fill="#FFFFFF" cx="31.5960729" cy="21.7223001" r="3.29128331"></circle>
                    <rect id="Rectangle" fill="#DBDBDB" x="8.55724404" y="21.0639972" width="1.31652875" height="1.31652875"></rect>
                    <rect id="Rectangle" fill="#DBDBDB" x="30.9378471" y="21.0639972" width="1.31652875" height="1.31652875"></rect>
                    <path d="M33.465533,4.91050491 C33.344425,4.72220898 33.1363815,4.60835203 32.9126017,4.60773492 L26.3301122,4.60773492 L26.3301122,0.658225806 C26.3301122,0.294901823 26.0352104,4.61852778e-14 25.6718864,4.61852778e-14 L0.658225806,4.61852778e-14 C0.294901823,4.61852778e-14 1.88293825e-13,0.294901823 1.88293825e-13,0.658225806 L1.88293825e-13,21.7223001 C1.88293825e-13,22.0856241 0.294901823,22.3805259 0.658225806,22.3805259 L5.32520337,22.3805259 C5.70171809,24.5290743 7.74821178,25.9653997 9.89676017,25.5895021 C11.5351122,25.3024684 12.8187027,24.0195722 13.1057363,22.3805259 L27.7057293,22.3805259 C28.082244,24.5290743 30.1287377,25.9653997 32.2772861,25.5895021 C33.9156381,25.3024684 35.1992286,24.0195722 35.4862623,22.3805259 L38.8367882,22.3805259 C39.2001122,22.3805259 39.495014,22.0856241 39.495014,21.7223001 L39.495014,14.4815077 C39.495014,14.3551543 39.4581417,14.2320407 39.3897195,14.1260519 L33.465533,4.91050491 Z M34.2290533,8.55724404 L37.2109327,13.164979 L28.9630926,13.164979 L28.9630926,8.55724404 L34.2290533,8.55724404 L34.2290533,8.55724404 Z M9.21554698,24.3552805 C7.76147966,24.3552805 6.58256662,23.1763675 6.58256662,21.7223001 C6.58256662,20.2682328 7.76147966,19.0893198 9.21554698,19.0893198 C10.6696143,19.0893198 11.8485273,20.2682328 11.8485273,21.7223001 C11.8485273,23.1763675 10.6696143,24.3552805 9.21554698,24.3552805 Z M9.21554698,17.772791 C7.28946704,17.7747966 5.64648668,19.164993 5.3252805,21.0640743 L1.31652875,21.0640743 L1.31652875,19.7475456 L4.60781206,19.7475456 L4.60781206,18.4310168 L1.31652875,18.4310168 L1.31652875,1.31645161 L25.0135835,1.31645161 L25.0135835,2.63298036 L2.63298036,2.63298036 L2.63298036,3.94950912 L25.0135835,3.94950912 L25.0135835,18.4310168 L13.8232819,18.4310168 L13.8232819,19.7475456 L25.0135835,19.7475456 L25.0135835,21.0640743 L13.1058135,21.0640743 C12.7845302,19.1656101 11.1415498,17.7747195 9.21554698,17.772791 Z M31.5960729,24.3552805 C30.1420056,24.3552805 28.9630926,23.1763675 28.9630926,21.7223001 C28.9630926,20.2682328 30.1420056,19.0893198 31.5960729,19.0893198 C33.0501403,19.0893198 34.2290533,20.2682328 34.2290533,21.7223001 C34.2290533,23.1763675 33.0501403,24.3552805 31.5960729,24.3552805 Z M35.4863394,21.0640743 C35.1098247,18.9154488 33.063331,17.4791234 30.9147826,17.855021 C29.2764306,18.1420547 27.9928401,19.4249509 27.7058065,21.0640743 L26.3300351,21.0640743 L26.3300351,5.92426367 L32.5505119,5.92426367 L33.3996564,7.24079243 L28.3047896,7.24079243 C27.9414656,7.24079243 27.6465638,7.53569425 27.6465638,7.89901823 L27.6465638,13.8232819 C27.6465638,14.1866059 27.9414656,14.4815077 28.3047896,14.4815077 L38.0535203,14.4815077 L38.1785624,14.6724264 L38.1785624,18.4310168 L36.2038079,18.4310168 L36.2038079,19.7475456 L38.1785624,19.7475456 L38.1785624,21.0640743 L35.4863394,21.0640743 L35.4863394,21.0640743 Z" id="Shape" fill="#000000"></path>
                    <rect id="Rectangle" fill="#000000" x="8.55724404" y="21.0639972" width="1.31652875" height="1.31652875"></rect>
                    <rect id="Rectangle" fill="#000000" x="30.9378471" y="21.0639972" width="1.31652875" height="1.31652875"></rect>
                </g>
            </g>
        </g>
    </g>
</svg>