<?xml version="1.0" encoding="UTF-8"?>
<svg width="32px" height="33px" viewBox="0 0 32 33" version="1.1" xmlns="http://www.w3.org/2000/svg" xmlns:xlink="http://www.w3.org/1999/xlink">
    <!-- Generator: Sketch 63.1 (92452) - https://sketch.com -->
    <title>Group 42</title>
    <desc>Created with Sketch.</desc>
    <g id="Page-1" stroke="none" stroke-width="1" fill="none" fill-rule="evenodd">
        <g id="Softcom_Trabalhe-Conosco" transform="translate(-986.000000, -2427.000000)">
            <g id="Footer" transform="translate(-1.000000, 2101.000000)">
                <g id="Group-42" transform="translate(987.000000, 326.907975)">
                    <circle id="Oval" fill="#FFFFFF" cx="16" cy="16" r="16"></circle>
                    <g id="facebook-logo" transform="translate(10.666667, 6.666667)" fill="#231F20" fill-rule="nonzero">
                        <path d="M10.080805,0.00384879725 L7.57212579,0 C4.75371069,0 2.93232704,1.78680412 2.93232704,4.55235739 L2.93232704,6.65129897 L0.409962264,6.65129897 C0.192,6.65129897 0.0154968553,6.82026117 0.0154968553,7.02867354 L0.0154968553,10.0698007 C0.0154968553,10.2782131 0.192201258,10.4469828 0.409962264,10.4469828 L2.93232704,10.4469828 L2.93232704,18.1207148 C2.93232704,18.3291271 3.10883019,18.4978969 3.32679245,18.4978969 L6.61776101,18.4978969 C6.83572327,18.4978969 7.01222642,18.3289347 7.01222642,18.1207148 L7.01222642,10.4469828 L9.96145912,10.4469828 C10.1794214,10.4469828 10.3559245,10.2782131 10.3559245,10.0698007 L10.3571321,7.02867354 C10.3571321,6.92860481 10.3154717,6.83276976 10.2416101,6.76195189 C10.1677484,6.69113402 10.0671195,6.65129897 9.96246541,6.65129897 L7.01222642,6.65129897 L7.01222642,4.872 C7.01222642,4.01679725 7.22535849,3.58265292 8.39044025,3.58265292 L10.0804025,3.5820756 C10.2981635,3.5820756 10.4746667,3.4131134 10.4746667,3.20489347 L10.4746667,0.381030928 C10.4746667,0.173003436 10.2983648,0.00423367698 10.080805,0.00384879725 Z" id="Path"></path>
                    </g>
                </g>
            </g>
        </g>
    </g>
</svg>