<?xml version="1.0" encoding="UTF-8"?>
<svg width="80px" height="80px" viewBox="0 0 80 80" version="1.1" xmlns="http://www.w3.org/2000/svg" xmlns:xlink="http://www.w3.org/1999/xlink">
    <!-- Generator: Sketch 63.1 (92452) - https://sketch.com -->
    <title>Group 5</title>
    <desc>Created with Sketch.</desc>
    <g id="Page-2" stroke="none" stroke-width="1" fill="none" fill-rule="evenodd">
        <g id="Desktop-HD" transform="translate(-299.000000, -179.000000)">
            <g id="Group-5" transform="translate(299.000000, 179.000000)">
                <g id="gas" transform="translate(28.000000, 20.000000)" fill="#000000" fill-rule="nonzero">
                    <path d="M21.7067969,15.1935156 L20.0186719,15.1935156 C19.695,15.1935156 19.4327344,15.4557812 19.4327344,15.7794531 C19.4327344,16.103125 19.6950781,16.3653906 20.0186719,16.3653906 L21.7067969,16.3653906 C22.0304687,16.3653906 22.2927344,16.103125 22.2927344,15.7794531 C22.2927344,15.4557812 22.0304688,15.1935156 21.7067969,15.1935156 Z" id="Path"></path>
                    <path d="M24.825,15.7794531 C24.825,11.9301563 21.8459375,8.76375 18.0722656,8.46414063 L18.0722656,0.5859375 C18.0722656,0.262265625 17.81,0 17.4863281,0 L7.35726562,0 C7.03359375,0 6.77132812,0.262265625 6.77132812,0.5859375 L6.77132812,8.46445313 C2.99773437,8.76398437 0.01875,11.9302344 0.01875,15.7795313 L0.01875,15.7796875 L0.01875,32.6610156 C0.01875,34.6467188 1.48710937,36.2955469 3.39492187,36.5796875 L3.39492187,39.4140625 C3.39492187,39.7377344 3.6571875,40 3.98085937,40 L20.8627344,40 C21.1864062,40 21.4486719,39.7377344 21.4486719,39.4140625 L21.4486719,36.5796875 C23.3555469,36.2957031 24.8233594,34.6483594 24.825,32.6640625 C24.825,32.6630469 24.825,32.6620312 24.825,32.6610156 C24.825,32.6604687 24.825,32.66 24.825,32.6594531 L24.825,15.7794531 Z M7.94320313,1.171875 L16.9003906,1.171875 L16.9003906,8.44078125 L14.2739844,8.44085938 L14.2739844,5.65054687 C14.2739844,5.326875 14.0117187,5.06460937 13.6880469,5.06460937 L11.1557031,5.06460937 C10.8320313,5.06460937 10.5697656,5.326875 10.5697656,5.65054687 L10.5697656,8.4409375 L7.94320313,8.44101563 L7.94320313,1.171875 Z M13.1021094,6.23648437 L13.1021094,8.44078125 L11.7416406,8.44078125 L11.7416406,6.23648437 L13.1021094,6.23648437 Z M20.2767969,38.828125 L4.56679688,38.828125 L4.56679688,36.6232813 L20.2767969,36.6232813 L20.2767969,38.828125 Z M23.6530469,32.075 L7.5553125,32.075 C7.23164062,32.075 6.969375,32.3372656 6.969375,32.6609375 C6.969375,32.9846094 7.23164062,33.246875 7.5553125,33.246875 L23.590625,33.246875 C23.320625,34.5051562 22.2003125,35.4514063 20.8626562,35.4514063 L3.98109375,35.4514063 C2.4425,35.4514063 1.190625,34.1996875 1.190625,32.6609375 L1.190625,16.3655469 L17.2883594,16.3655469 C17.6120312,16.3655469 17.8742969,16.1032813 17.8742969,15.7796094 C17.8742969,15.4559375 17.6120312,15.1936719 17.2883594,15.1936719 L1.21921875,15.1936719 C1.5153125,12.0671875 4.15460937,9.61265625 7.35726563,9.61265625 L17.4863281,9.61265625 C17.4873437,9.61265625 17.4882812,9.61265625 17.4892969,9.61265625 C20.8882812,9.61429688 23.6530469,12.38 23.6530469,15.7794531 L23.6530469,32.075 Z" id="Shape"></path>
                    <path d="M4.82507812,32.0752344 L3.136875,32.0752344 C2.81320312,32.0752344 2.5509375,32.3375 2.5509375,32.6611719 C2.5509375,32.9848437 2.81320312,33.2471094 3.136875,33.2471094 L4.82507812,33.2471094 C5.14875,33.2471094 5.41101562,32.9848437 5.41101562,32.6611719 C5.41101562,32.3375 5.14867187,32.0752344 4.82507812,32.0752344 Z" id="Path"></path>
                    <path d="M16.3482031,25.448125 C16.3417188,25.3830469 16.3360938,25.3282812 16.334375,25.3030469 L16.334375,25.3032031 C16.0538281,20.8138281 12.8708594,18.7467187 12.7355469,18.6609375 C12.5592188,18.5492187 12.3367969,18.5397656 12.1517188,18.6358594 C11.9665625,18.7320312 11.8464844,18.9194531 11.8365625,19.1278906 C11.7886719,20.1307031 11.3765625,20.9285156 11.0621094,21.3985937 L10.7640625,21.1005469 C10.6407031,20.9771875 10.4679688,20.9151562 10.2952344,20.9314062 C10.1215625,20.9476562 9.96421875,21.0403906 9.86585937,21.184375 C9.1284375,22.264375 8.6565625,23.5053125 8.50125,24.7730469 C8.45164063,25.1773437 8.4346875,25.5735937 8.45078125,25.9508594 C8.46046875,26.1782812 8.4746875,26.3252344 8.49328125,26.4263281 C8.75039063,28.39125 10.4357813,29.8707031 12.421875,29.8707031 C14.6067188,29.8707031 16.3842188,28.0932031 16.3842188,25.9083594 C16.3842188,25.8155469 16.3699219,25.6658594 16.3482031,25.448125 Z M12.421875,28.69875 C11.0185156,28.69875 9.82835938,27.650625 9.6534375,26.2607812 C9.65257813,26.2542969 9.65132813,26.2455469 9.6503125,26.2391406 C9.6471875,26.2195312 9.37984375,24.4379687 10.460625,22.4544531 L10.7001563,22.6939844 C10.8100781,22.8039062 10.9590625,22.865625 11.1145313,22.865625 C11.1147656,22.865625 11.1150781,22.865625 11.1153125,22.865625 C11.2710156,22.8653906 11.4201563,22.8032812 11.53,22.6928906 C11.5759375,22.6467187 12.4667188,21.7357812 12.8452344,20.2563281 C13.6975781,21.0753906 15.0001562,22.7410937 15.1647656,25.37625 L15.1647656,25.3764062 C15.1667187,25.4075781 15.1735938,25.4791406 15.1821094,25.5644531 C15.1916406,25.6597656 15.2114844,25.858125 15.2123437,25.9082812 C15.2123437,27.4469531 13.960625,28.69875 12.421875,28.69875 Z" id="Shape"></path>
                </g>
                <g id="Group-4-Copy" fill="#FCD800" fill-opacity="0.2">
                    <g id="Group-3-Copy">
                        <g id="Group-40-Copy-3">
                            <path d="M40,0 C62.09139,0 80,17.90861 80,40 C80,62.09139 62.09139,80 40,80 C17.90861,80 0,62.09139 0,40 C0,17.90861 17.90861,0 40,0 Z M40,8 C22.326888,8 8,22.326888 8,40 C8,57.673112 22.326888,72 40,72 C57.673112,72 72,57.673112 72,40 C72,22.326888 57.673112,8 40,8 Z" id="Combined-Shape"></path>
                        </g>
                    </g>
                </g>
            </g>
        </g>
    </g>
</svg>