<?xml version="1.0" encoding="UTF-8"?>
<svg width="80px" height="80px" viewBox="0 0 80 80" version="1.1" xmlns="http://www.w3.org/2000/svg" xmlns:xlink="http://www.w3.org/1999/xlink">
    <!-- Generator: Sketch 63.1 (92452) - https://sketch.com -->
    <title>Group 4</title>
    <desc>Created with Sketch.</desc>
    <g id="Page-2" stroke="none" stroke-width="1" fill="none" fill-rule="evenodd">
        <g id="Desktop-HD" transform="translate(-299.000000, -61.000000)">
            <g id="Group-4" transform="translate(299.000000, 61.000000)">
                <g id="Group-3-Copy" fill="#FCD800" fill-opacity="0.2">
                    <g id="Group-40-Copy-2">
                        <path d="M40,0 C62.09139,0 80,17.90861 80,40 C80,62.09139 62.09139,80 40,80 C17.90861,80 0,62.09139 0,40 C0,17.90861 17.90861,0 40,0 Z M40,8 C22.326888,8 8,22.326888 8,40 C8,57.673112 22.326888,72 40,72 C57.673112,72 72,57.673112 72,40 C72,22.326888 57.673112,8 40,8 Z" id="Combined-Shape"></path>
                    </g>
                </g>
                <g id="industry" transform="translate(20.000000, 20.000000)" fill="#000000" fill-rule="nonzero">
                    <path d="M30.1639506,8.05185185 C31.0454236,8.05185185 31.8400919,7.52083891 32.1773708,6.70644491 C32.5146498,5.8920509 32.3281111,4.95467391 31.7047449,4.33144899 C31.0813788,3.70822407 30.1439595,3.52189781 29.329642,3.85936134 C28.5153244,4.19682486 27.9844916,4.99161342 27.9846913,5.87308642 C27.9860526,7.07601383 28.9610229,8.05076326 30.1639506,8.05185185 L30.1639506,8.05185185 Z M30.1639506,5.4217284 C30.4128917,5.4217284 30.6147237,5.62348708 30.6148145,5.87242816 C30.6149053,6.12136925 30.4132205,6.32327494 30.1642795,6.32345679 C29.9153384,6.3236384 29.7133591,6.12202737 29.7130864,5.87308642 C29.7130864,5.62400099 29.9148653,5.42200092 30.1639506,5.4217284 L30.1639506,5.4217284 Z" id="Shape"></path>
                    <path d="M13.7032099,5.93975309 L13.7402469,5.93975309 C14.7531502,7.84738816 17.1031294,8.59834693 19.0345679,7.63160494 C19.9230094,8.70512825 21.3471924,9.17590553 22.7004149,8.84338562 C24.0536373,8.5108657 25.0974391,7.43364408 25.3871605,6.07061728 C26.7273657,5.71434386 27.6567932,4.49650858 27.6468823,3.10979267 C27.6368118,1.72307677 26.6899338,0.518759457 25.3447343,0.181833223 C23.9995349,-0.155093011 22.5967765,0.460721096 21.934321,1.67901235 C21.4767393,1.66445212 21.0206517,1.73839867 20.5911111,1.89679012 C19.4515666,0.146805983 17.1528812,-0.424199546 15.3269136,0.589135802 C14.8478016,0.263992695 14.2822315,0.0899181807 13.7032099,0.089382716 C12.0878111,0.089382716 10.7782716,1.39892219 10.7782716,3.01432099 C10.7782716,4.62971979 12.0878111,5.93925926 13.7032099,5.93925926 L13.7032099,5.93975309 Z M13.7032099,1.8182716 C14.0516146,1.81890135 14.3818308,1.97388232 14.6049383,2.24148148 C14.9128954,2.60023646 15.4522364,2.64428227 15.814321,2.34024691 C16.3842356,1.86389617 17.1525309,1.6995271 17.8674587,1.90099869 C18.5823866,2.10247029 19.1518064,2.64381667 19.3891358,3.34765432 C19.4770517,3.60815619 19.6836757,3.8112813 19.9456409,3.89473579 C20.2076061,3.97819029 20.49365,3.93201482 20.7160494,3.77037037 C21.1649918,3.43366557 21.7431024,3.32037116 22.2859259,3.46271605 C22.5092045,3.51738781 22.745066,3.48079667 22.9412847,3.36104483 C23.1375035,3.24129298 23.2778896,3.04826113 23.331358,2.82469136 C23.492646,2.16018962 24.1377015,1.73135572 24.8128435,1.83979753 C25.4879855,1.94823934 25.9662999,2.55750976 25.9113782,3.23909611 C25.8564565,3.92068246 25.2867577,4.44550475 24.602963,4.44444444 C24.1248488,4.44662011 23.7384885,4.83496736 23.7387654,5.31308642 C23.7388144,6.21509612 23.1064596,6.99359293 22.223591,7.17842937 C21.3407224,7.3632658 20.4491908,6.90380821 20.0874074,6.07753086 C19.9766985,5.8267545 19.7534577,5.64346983 19.4859259,5.5837037 C19.4237514,5.56930766 19.3601151,5.56218173 19.2962963,5.56246914 C19.0882086,5.5624724 18.887101,5.63751516 18.7298765,5.77382716 C18.1550407,6.27348555 17.3663686,6.44823969 16.6342715,6.23817178 C15.9021744,6.02810388 15.3261516,5.46176427 15.1037037,4.73333333 C14.9653724,4.28103556 14.4889826,4.02412849 14.0350617,4.15703704 C13.5865602,4.2888428 13.102407,4.146461 12.7966609,3.792843 C12.4909148,3.43922499 12.4199597,2.9395828 12.615167,2.51482349 C12.8103743,2.09006418 13.235745,1.81851921 13.7032099,1.82024691 L13.7032099,1.8182716 Z" id="Shape"></path>
                    <path d="M39.0459259,22.4281481 L37.3116049,22.4281481 L36.0276543,11.1767901 L36.0469136,11.1767901 C36.5241967,11.1767901 36.9111111,10.7898757 36.9111111,10.3125926 C36.9111111,9.83530948 36.5241967,9.44839506 36.0469136,9.44839506 L26.9111111,9.44839506 C26.433828,9.44839506 26.0469136,9.83530948 26.0469136,10.3125926 C26.0469136,10.7898757 26.433828,11.1767901 26.9111111,11.1767901 L26.9303704,11.1767901 L25.6464198,22.4281481 L20.4118519,22.4281481 C20.2109809,22.4282699 20.016375,22.4980837 19.8612346,22.625679 L15.5111111,26.2192593 L15.5145679,23.2933333 C15.5148924,22.9612318 15.3248799,22.658323 15.0257427,22.5140716 C14.7266054,22.3698203 14.3712686,22.4097483 14.1116049,22.6167901 L9.54074074,26.262716 L9.53679012,23.291358 C9.5362451,22.8144607 9.14949027,22.4281478 8.67259259,22.4281481 L0.954074074,22.4281481 C0.724834471,22.428017 0.504946264,22.5190241 0.34284936,22.681121 C0.180752456,22.8432179 0.0898764018,23.0631061 0.0898764018,23.2923457 L0.0898764018,39.0454321 C0.0898764018,39.2746717 0.180752456,39.4945599 0.34284936,39.6566568 C0.504946264,39.8187537 0.724834471,39.9096298 0.954074074,39.9096298 L39.0459259,39.9096298 C39.2751655,39.9096298 39.4950537,39.8187537 39.6571506,39.6566568 C39.8192475,39.4945599 39.9101236,39.2746717 39.9101236,39.0454321 L39.9101236,23.2923457 C39.9101236,23.0631061 39.8192475,22.8432179 39.6571506,22.681121 C39.4950537,22.5190241 39.2751655,22.428017 39.0459259,22.4281481 Z M28.6696296,11.1767901 L34.2874074,11.1767901 L35.571358,22.4281481 L27.3851852,22.4281481 L28.6696296,11.1767901 Z M32.7955556,38.1817284 L27.2809877,38.1817284 L27.2809877,32.0330864 L32.7955556,32.0330864 L32.7955556,38.1817284 Z M38.1817284,38.1817284 L34.5239506,38.1817284 L34.5239506,31.1693827 C34.5239506,30.6920996 34.1370362,30.3051852 33.6597531,30.3051852 L26.4167901,30.3051852 C25.939507,30.3051852 25.5525926,30.6920996 25.5525926,31.1693827 L25.5525926,38.1817284 L1.8182716,38.1817284 L1.8182716,24.157037 L7.80987654,24.157037 L7.81481481,28.0582716 C7.81530144,28.3901104 8.00564973,28.6923988 8.30469368,28.8362387 C8.60373762,28.9800787 8.95871925,28.9400935 9.2182716,28.7333333 L13.7841975,25.0908642 L13.7807407,28.0567901 C13.7803205,28.3916925 13.973434,28.696686 14.2763474,28.8395259 C14.5792609,28.9823657 14.937431,28.9373317 15.1955556,28.7239506 L20.7219753,24.1585185 L38.1817284,24.1585185 L38.1817284,38.1817284 Z" id="Shape"></path>
                    <path d="M14.748642,30.3046912 L11.8098765,30.3046912 C11.5806369,30.3045603 11.3607487,30.3955673 11.1986518,30.5576642 C11.0365549,30.7197611 10.9455479,30.9396493 10.9456789,31.1688889 L10.9456789,34.1076543 C10.9455479,34.3368939 11.0365549,34.5567821 11.1986518,34.718879 C11.3607487,34.8809759 11.5806369,34.971983 11.8098765,34.971852 L14.748642,34.971852 C15.2259251,34.971852 15.6128395,34.5849374 15.6128395,34.1076543 L15.6128395,31.1688889 C15.6128395,30.6916058 15.2259251,30.3046912 14.748642,30.3046912 L14.748642,30.3046912 Z M13.8844444,33.2434568 L12.6740741,33.2434568 L12.6740741,32.0330864 L13.8844444,32.0330864 L13.8844444,33.2434568 Z" id="Shape"></path>
                    <path d="M22.2128395,30.3046912 L19.2745679,30.3046912 C19.0453283,30.3045603 18.8254401,30.3955673 18.6633432,30.5576642 C18.5012463,30.7197611 18.4102393,30.9396493 18.4103702,31.1688889 L18.4103702,34.1076543 C18.4102393,34.3368939 18.5012463,34.5567821 18.6633432,34.718879 C18.8254401,34.8809759 19.0453283,34.971983 19.2745679,34.971852 L22.2128395,34.971852 C22.4420791,34.971983 22.6619673,34.8809759 22.8240642,34.718879 C22.9861611,34.5567821 23.0771681,34.3368939 23.0770372,34.1076543 L23.0770372,31.1688889 C23.0771681,30.9396493 22.9861611,30.7197611 22.8240642,30.5576642 C22.6619673,30.3955673 22.4420791,30.3045603 22.2128395,30.3046912 Z M21.348642,33.2434568 L20.1387654,33.2434568 L20.1387654,32.0330864 L21.348642,32.0330864 L21.348642,33.2434568 Z" id="Shape"></path>
                    <path d="M7.28395062,30.3046914 L4.34567901,30.3046914 C3.8683959,30.3046914 3.48148148,30.6916058 3.48148148,31.1688889 L3.48148148,34.1076543 C3.48148148,34.5849374 3.8683959,34.9718519 4.34567901,34.9718519 L7.28395062,34.9718519 C7.76123373,34.9718519 8.14814815,34.5849374 8.14814815,34.1076543 L8.14814815,31.1688889 C8.14814815,30.6916058 7.76123373,30.3046914 7.28395062,30.3046914 L7.28395062,30.3046914 Z M6.41975309,33.2434568 L5.20938272,33.2434568 L5.20938272,32.0330864 L6.41975309,32.0330864 L6.41975309,33.2434568 Z" id="Shape"></path>
                </g>
            </g>
        </g>
    </g>
</svg>