<?xml version="1.0" encoding="UTF-8"?>
<svg width="33px" height="33px" viewBox="0 0 33 33" version="1.1" xmlns="http://www.w3.org/2000/svg" xmlns:xlink="http://www.w3.org/1999/xlink">
    <!-- Generator: Sketch 63.1 (92452) - https://sketch.com -->
    <title>Group 53</title>
    <desc>Created with Sketch.</desc>
    <g id="Page-1" stroke="none" stroke-width="1" fill="none" fill-rule="evenodd">
        <g id="Softcom_Trabalhe-Conosco" transform="translate(-1034.000000, -2427.000000)">
            <g id="Footer" transform="translate(-1.000000, 2101.000000)">
                <g id="Group-53" transform="translate(1035.333333, 326.907975)">
                    <circle id="Oval-Copy" fill="#FFFFFF" cx="16" cy="16" r="16"></circle>
                    <g id="instagram-logo" transform="translate(6.666667, 6.666667)" fill="#231F20" fill-rule="nonzero">
                        <path d="M13.4406588,0 L5.12279216,0 C2.29808627,0 0,2.29819608 0,5.12290196 L0,13.4407686 C0,16.2655843 2.29808627,18.5636706 5.12279216,18.5636706 L13.4406588,18.5636706 C16.2655843,18.5636706 18.5636706,16.2654745 18.5636706,13.4407686 L18.5636706,5.12290196 C18.5636706,2.29819608 16.2655843,0 13.4406588,0 Z M16.9167216,13.4407686 C16.9167216,15.3573961 15.3573961,16.9166118 13.4407686,16.9166118 L5.12279216,16.9166118 C3.20627451,16.9166118 1.64705882,15.3573961 1.64705882,13.4407686 L1.64705882,5.12290196 C1.64705882,3.20638431 3.20627451,1.64705882 5.12279216,1.64705882 L13.4406588,1.64705882 C15.3572863,1.64705882 16.9167216,3.20638431 16.9167216,5.12290196 L16.9167216,13.4407686 L16.9167216,13.4407686 Z" id="Shape"></path>
                        <path d="M9.28183529,4.49866667 C6.64423529,4.49866667 4.49844706,6.6444549 4.49844706,9.2820549 C4.49844706,11.9195451 6.64423529,14.0652235 9.28183529,14.0652235 C11.9194353,14.0652235 14.0652235,11.9195451 14.0652235,9.2820549 C14.0652235,6.6444549 11.9194353,4.49866667 9.28183529,4.49866667 Z M9.28183529,12.4180549 C7.55253333,12.4180549 6.14550588,11.0112471 6.14550588,9.2819451 C6.14550588,7.55253333 7.55242353,6.14561569 9.28183529,6.14561569 C11.0112471,6.14561569 12.4181647,7.55253333 12.4181647,9.2819451 C12.4181647,11.0112471 11.0111373,12.4180549 9.28183529,12.4180549 Z" id="Shape"></path>
                        <path d="M14.2658353,3.10207059 C13.948502,3.10207059 13.6367686,3.23054118 13.4126588,3.45563922 C13.187451,3.67963922 13.0579922,3.99148235 13.0579922,4.30991373 C13.0579922,4.62735686 13.1875608,4.9390902 13.4126588,5.16418824 C13.6366588,5.38818824 13.948502,5.51775686 14.2658353,5.51775686 C14.5842667,5.51775686 14.8950118,5.38818824 15.1201098,5.16418824 C15.3452078,4.9390902 15.4736784,4.62724706 15.4736784,4.30991373 C15.4736784,3.99148235 15.3452078,3.67963922 15.1201098,3.45563922 C14.8961098,3.23054118 14.5842667,3.10207059 14.2658353,3.10207059 Z" id="Path"></path>
                    </g>
                </g>
            </g>
        </g>
    </g>
</svg>