<?xml version="1.0" encoding="UTF-8" standalone="no"?>
<!DOCTYPE svg PUBLIC "-//W3C//DTD SVG 1.1//EN" "http://www.w3.org/Graphics/SVG/1.1/DTD/svg11.dtd">
<svg version="1.1" xmlns="http://www.w3.org/2000/svg" xmlns:xlink="http://www.w3.org/1999/xlink" preserveAspectRatio="xMidYMid meet" viewBox="0 0 640 640" width="32" height="32"><defs><path d="M320 6.67C178.62 6.67 64 121.28 64 262.67C64 404.05 178.62 518.67 320 518.67C461.38 518.67 576 404.05 576 262.67C576 121.28 461.38 6.67 320 6.67Z" id="cec5UWPkU"></path><path d="M245.6 206.07C245.6 206.07 245.6 206.07 245.6 206.07C245.6 318.63 245.6 381.16 245.6 393.67C245.6 393.67 245.6 393.67 245.6 393.67C208.22 393.67 187.45 393.67 183.3 393.67C183.3 393.67 183.3 393.67 183.3 393.67C183.3 281.11 183.3 218.57 183.3 206.07C183.3 206.07 183.3 206.07 183.3 206.07C220.68 206.07 241.45 206.07 245.6 206.07Z" id="b1z6ZFQxkQ"></path><path d="M214 180.47C193.1 180.47 179.5 166.07 179.5 148.07C179.5 129.67 193.4 115.67 214.8 115.67C236.2 115.67 249.3 129.67 249.7 148.07C249.7 166.07 236.2 180.47 214.4 180.47C214.32 180.47 214.04 180.47 214 180.47Z" id="euL8T5H3p"></path><path d="M408.1 393.67C408.1 333.49 408.1 300.05 408.1 293.37C408.1 268.17 399.1 250.97 376.5 250.97C359.3 250.97 349 262.57 344.5 273.77C342.9 277.77 342.4 283.37 342.4 288.97C342.4 295.95 342.4 330.85 342.4 393.67C305.02 393.67 284.25 393.67 280.1 393.67C280.1 393.67 280.9 223.67 280.1 206.07C284.25 206.07 305.02 206.07 342.4 206.07C342.4 222.03 342.4 230.89 342.4 232.67C350.7 219.87 365.5 201.67 398.6 201.67C439.6 201.67 470.4 228.47 470.4 286.07C470.4 293.24 470.4 329.11 470.4 393.67L470.4 393.67L408.1 393.67Z" id="g1rZWTdcP2"></path></defs><g><g><g><use xlink:href="#cec5UWPkU" opacity="1" fill="#ffffff" fill-opacity="1"></use><g><use xlink:href="#cec5UWPkU" opacity="1" fill-opacity="0" stroke="#000000" stroke-width="1" stroke-opacity="0"></use></g></g><g><use xlink:href="#b1z6ZFQxkQ" opacity="1" fill="#000000" fill-opacity="1"></use><g><use xlink:href="#b1z6ZFQxkQ" opacity="1" fill-opacity="0" stroke="#000000" stroke-width="1" stroke-opacity="0"></use></g></g><g><use xlink:href="#euL8T5H3p" opacity="1" fill="#000000" fill-opacity="1"></use><g><use xlink:href="#euL8T5H3p" opacity="1" fill-opacity="0" stroke="#000000" stroke-width="1" stroke-opacity="0"></use></g></g><g><use xlink:href="#g1rZWTdcP2" opacity="1" fill="#000000" fill-opacity="1"></use><g><use xlink:href="#g1rZWTdcP2" opacity="1" fill-opacity="0" stroke="#000000" stroke-width="1" stroke-opacity="0"></use></g></g></g></g></svg>