<?xml version="1.0" encoding="UTF-8"?>
<svg width="80px" height="80px" viewBox="0 0 80 80" version="1.1" xmlns="http://www.w3.org/2000/svg" xmlns:xlink="http://www.w3.org/1999/xlink">
    <!-- Generator: Sketch 63.1 (92452) - https://sketch.com -->
    <title>Group 2</title>
    <desc>Created with Sketch.</desc>
    <g id="Page-2" stroke="none" stroke-width="1" fill="none" fill-rule="evenodd">
        <g id="Desktop-HD" transform="translate(-88.000000, -61.000000)">
            <g id="Group-2" transform="translate(88.000000, 61.000000)">
                <g id="Group-40" fill="#FCD800" fill-opacity="0.2">
                    <path d="M40,0 C62.09139,0 80,17.90861 80,40 C80,62.09139 62.09139,80 40,80 C17.90861,80 0,62.09139 0,40 C0,17.90861 17.90861,0 40,0 Z M40,8 C22.326888,8 8,22.326888 8,40 C8,57.673112 22.326888,72 40,72 C57.673112,72 72,57.673112 72,40 C72,22.326888 57.673112,8 40,8 Z" id="Combined-Shape"></path>
                </g>
                <g id="wardrobe" transform="translate(26.000000, 20.000000)" fill="#000000" fill-rule="nonzero">
                    <path d="M26.4516129,0 L0.64516129,0 C0.288848548,0 0,0.288848548 0,0.64516129 L0,2.58064516 C0,2.9369579 0.288848548,3.22580645 0.64516129,3.22580645 L1.29032258,3.22580645 L1.29032258,33.5483871 C1.29032258,33.9046998 1.57917113,34.1935484 1.93548387,34.1935484 L1.93548387,35.483871 C1.93548387,35.8401837 2.22433242,36.1290323 2.58064516,36.1290323 L2.58064516,39.3548387 C2.58064516,39.7111515 2.86949371,40 3.22580645,40 L5.08064516,40 C5.39112469,40 5.65746554,39.7785801 5.71451613,39.4733871 L6.34193548,36.1290323 L20.7548387,36.1290323 L21.3822581,39.4733871 C21.4393086,39.7785801 21.7056495,40 22.016129,40 L23.8709677,40 C24.2272805,40 24.516129,39.7111515 24.516129,39.3548387 L24.516129,36.1290323 C24.8724418,36.1290323 25.1612903,35.8401837 25.1612903,35.483871 L25.1612903,34.1935484 C25.5176031,34.1935484 25.8064516,33.9046998 25.8064516,33.5483871 L25.8064516,3.22580645 L26.4516129,3.22580645 C26.8079256,3.22580645 27.0967742,2.9369579 27.0967742,2.58064516 L27.0967742,0.64516129 C27.0967742,0.288848548 26.8079256,0 26.4516129,0 Z M4.54516129,38.7096774 L3.87096774,38.7096774 L3.87096774,36.1290323 L5.02903226,36.1290323 L4.54516129,38.7096774 Z M23.2258065,38.7096774 L22.5516129,38.7096774 L22.0677419,36.1290323 L23.2258065,36.1290323 L23.2258065,38.7096774 Z M23.8709677,34.8387097 L3.22580645,34.8387097 L3.22580645,34.1935484 L23.8709677,34.1935484 L23.8709677,34.8387097 Z M24.516129,32.9032258 L2.58064516,32.9032258 L2.58064516,25.1612903 L24.516129,25.1612903 L24.516129,32.9032258 Z M2.58064516,23.8709677 L2.58064516,3.22580645 L12.9032258,3.22580645 L12.9032258,23.8709677 L2.58064516,23.8709677 Z M24.516129,23.8709677 L14.1935484,23.8709677 L14.1935484,3.22580645 L24.516129,3.22580645 L24.516129,23.8709677 Z M25.8064516,1.93548387 L1.29032258,1.93548387 L1.29032258,1.29032258 L25.8064516,1.29032258 L25.8064516,1.93548387 Z" id="Shape"></path>
                    <path d="M11.6129032,10.9677419 C11.2565905,10.9677419 10.9677419,11.2565905 10.9677419,11.6129032 L10.9677419,15.483871 C10.9677419,15.8401837 11.2565905,16.1290323 11.6129032,16.1290323 C11.969216,16.1290323 12.2580645,15.8401837 12.2580645,15.483871 L12.2580645,11.6129032 C12.2580645,11.2565905 11.969216,10.9677419 11.6129032,10.9677419 Z" id="Path"></path>
                    <path d="M15.483871,16.1290323 C15.8401837,16.1290323 16.1290323,15.8401837 16.1290323,15.483871 L16.1290323,11.6129032 C16.1290323,11.2565905 15.8401837,10.9677419 15.483871,10.9677419 C15.1275582,10.9677419 14.8387097,11.2565905 14.8387097,11.6129032 L14.8387097,15.483871 C14.8387097,15.8401837 15.1275582,16.1290323 15.483871,16.1290323 Z" id="Path"></path>
                    <path d="M10.3225806,27.7419355 C10.3225806,28.0982482 10.6114292,28.3870968 10.9677419,28.3870968 L16.1290323,28.3870968 C16.485345,28.3870968 16.7741935,28.0982482 16.7741935,27.7419355 C16.7741935,27.3856227 16.485345,27.0967742 16.1290323,27.0967742 L10.9677419,27.0967742 C10.6114292,27.0967742 10.3225806,27.3856227 10.3225806,27.7419355 Z" id="Path"></path>
                </g>
            </g>
        </g>
    </g>
</svg>