<?xml version="1.0" encoding="UTF-8"?>
<svg width="80px" height="80px" viewBox="0 0 80 80" version="1.1" xmlns="http://www.w3.org/2000/svg" xmlns:xlink="http://www.w3.org/1999/xlink">
    <!-- Generator: Sketch 62 (91390) - https://sketch.com -->
    <title>Group 40</title>
    <desc>Created with Sketch.</desc>
    <g id="Page-1" stroke="none" stroke-width="1" fill="none" fill-rule="evenodd">
        <g id="Home_Final" transform="translate(-285.000000, -1238.000000)">
            <g id="Group-28" transform="translate(194.000000, 1222.000000)">
                <g id="Group-40" transform="translate(91.000000, 16.000000)">
                    <g id="Group-35" transform="translate(20.000000, 20.000000)" fill="#000000" fill-rule="nonzero">
                        <path d="M36.1132812,30.156245 C36.5444946,30.156245 36.8945312,29.8062084 36.8945312,29.374995 C36.8945312,28.9437817 36.5444946,28.593745 36.1132812,28.593745 C35.6820679,28.593745 35.3320312,28.9437817 35.3320312,29.374995 C35.3320312,29.8062084 35.6820679,30.156245 36.1132812,30.156245 Z" id="Path"></path>
                        <path d="M36.875,26.225581 L36.875,20.0244091 C36.875,19.6328685 36.59729,19.2828319 36.2097168,19.2269848 C35.7266235,19.1577099 35.3125,19.5303295 35.3125,19.999995 L35.3125,26.249995 C35.3125,26.7196606 35.7266235,27.0922802 36.2097168,27.0230053 C36.59729,26.9671581 36.875,26.6171215 36.875,26.225581 Z" id="Path"></path>
                        <path d="M0.78125,28.593745 L1.5625,28.593745 L1.5625,39.218745 C1.5625,39.6502636 1.91223141,40 2.34375,40 L37.65625,40 C38.9508056,40 40,38.9508006 40,37.656245 L40,8.59374502 C40,8.16222643 39.6502686,7.81249502 39.21875,7.81249502 L33.28125,7.81249502 L33.28125,7.11638908 C33.28125,3.32763174 30.3167725,0.153193301 26.5307617,0.00548818361 C22.5344848,-0.150456621 19.21875,3.03679924 19.21875,7.03124502 L19.21875,7.81249502 L13.28125,7.81249502 C12.8497314,7.81249502 12.5,8.16222643 12.5,8.59374502 L12.5,16.8765209 C11.7346191,17.4526928 11.206665,18.291621 11.0162353,19.2236278 C10.9899902,19.2208813 10.9637452,19.218745 10.9375,19.218745 C10.9115601,19.218745 10.8853149,19.2205761 10.859375,19.2211864 C10.4815673,17.3614452 8.77868656,15.9774731 6.78314211,16.1013744 C4.81079102,16.2240551 3.2247925,17.8338574 3.12957766,19.8077342 C3.08380125,20.7601879 3.3810425,21.6430614 3.90838625,22.343745 L0.78125,22.343745 C0.349731406,22.343745 0,22.6934764 0,23.124995 L0,27.812495 C0,28.2440136 0.349731406,28.593745 0.78125,28.593745 Z M3.125,28.593745 L7.03125,28.593745 L7.03125,38.437495 L3.125,38.437495 L3.125,28.593745 Z M8.59375,28.593745 L13.28125,28.593745 L13.28125,38.437495 L8.59375,38.437495 L8.59375,28.593745 Z M18.75,38.437495 C17.0742798,38.437495 16.6748047,38.437495 14.84375,38.437495 L14.84375,28.593745 L18.75,28.593745 L18.75,38.437495 Z M14.84375,27.031245 L14.84375,23.906245 L20.3125,23.906245 L20.3125,27.031245 L14.84375,27.031245 Z M14.84375,22.343745 C14.8168945,22.343745 14.7903442,22.3422192 14.7637939,22.3413036 C14.6487427,21.7758129 14.4104004,21.2438915 14.0625,20.781245 L14.0625,17.7908275 C14.312439,17.7026317 14.576416,17.656245 14.84375,17.656245 C16.1361695,17.656245 17.1875,18.7075756 17.1875,19.999995 C17.1875,21.2924145 16.1361695,22.343745 14.84375,22.343745 Z M10.9115601,20.7815502 L11.5878296,20.8669994 C12.3092652,21.0681103 12.9089355,21.6149853 13.1671142,22.343745 L8.74938969,22.343745 C9.07135008,21.4413403 9.91699219,20.8007763 10.9115601,20.7815502 Z M13.28125,23.906245 L13.28125,27.031245 L8.59375,27.031245 L8.59375,23.906245 L13.28125,23.906245 Z M37.65625,38.437495 L20.3125,38.437495 L20.3125,35.312495 L38.4375,35.312495 L38.4375,37.656245 C38.4375,38.0877636 38.0877686,38.437495 37.65625,38.437495 Z M20.78125,7.03124502 C20.78125,3.95873525 23.3135986,1.47185783 26.4190673,1.56493643 C29.3835449,1.65404775 31.71875,4.1320751 31.71875,7.0977733 L31.71875,7.81249502 L20.78125,7.81249502 L20.78125,7.03124502 Z M19.21875,9.37499502 L19.21875,12.968745 L18.4362793,12.968745 C18.102417,12.968745 17.796936,13.1777904 17.696228,13.4963939 C17.5259399,14.0353344 17.9238891,14.531245 18.4375,14.531245 L21.5637207,14.531245 C21.897583,14.531245 22.203064,14.3221996 22.303772,14.0039013 C22.4740601,13.4646556 22.0761109,12.968745 21.5625,12.968745 L20.78125,12.968745 L20.78125,9.37499502 L31.71875,9.37499502 L31.71875,12.968745 L30.9362793,12.968745 C30.602417,12.968745 30.296936,13.1777904 30.196228,13.4963939 C30.0259399,14.0353344 30.4238891,14.531245 30.9375,14.531245 L34.0637207,14.531245 C34.397583,14.531245 34.703064,14.3221996 34.803772,14.0039013 C34.9740601,13.4646556 34.5761109,12.968745 34.0625,12.968745 L33.28125,12.968745 L33.28125,9.37499502 L38.4375,9.37499502 L38.4375,33.749995 L20.3125,33.749995 L20.3125,28.593745 L21.09375,28.593745 C21.5252686,28.593745 21.875,28.2440136 21.875,27.812495 L21.875,23.124995 C21.875,22.6934764 21.5252686,22.343745 21.09375,22.343745 L17.9666138,22.343745 C18.458252,21.6903637 18.75,20.8785961 18.75,19.999995 C18.75,17.8460644 16.9976806,16.093745 14.84375,16.093745 C14.5803833,16.093745 14.3188477,16.1209056 14.0625,16.1730907 L14.0625,9.37499502 L19.21875,9.37499502 Z M4.70703125,19.999995 C4.70703125,18.7075756 5.7583618,17.656245 7.05078125,17.656245 C8.19396969,17.656245 9.14825438,18.4793041 9.3533325,19.5638988 C8.21746828,20.07812 7.38525391,21.1181591 7.13165281,22.3413036 C7.10479734,22.3422192 7.07794188,22.343745 7.05078125,22.343745 C5.7583618,22.343745 4.70703125,21.2924145 4.70703125,19.999995 Z M1.5625,23.906245 L7.03125,23.906245 L7.03125,27.031245 L1.5625,27.031245 L1.5625,23.906245 Z" id="Shape"></path>
                    </g>
                    <path d="M40,0 C62.09139,0 80,17.90861 80,40 C80,62.09139 62.09139,80 40,80 C17.90861,80 0,62.09139 0,40 C0,17.90861 17.90861,0 40,0 Z M40,8 C22.326888,8 8,22.326888 8,40 C8,57.673112 22.326888,72 40,72 C57.673112,72 72,57.673112 72,40 C72,22.326888 57.673112,8 40,8 Z" id="Combined-Shape" fill-opacity="0.2" fill="#FCD800"></path>
                </g>
            </g>
        </g>
    </g>
</svg>