<?xml version="1.0" encoding="UTF-8"?>
<svg width="80px" height="80px" viewBox="0 0 80 80" version="1.1" xmlns="http://www.w3.org/2000/svg" xmlns:xlink="http://www.w3.org/1999/xlink">
    <!-- Generator: Sketch 62 (91390) - https://sketch.com -->
    <title>Group 36</title>
    <desc>Created with Sketch.</desc>
    <g id="Page-1" stroke="none" stroke-width="1" fill="none" fill-rule="evenodd">
        <g id="Home_Final" transform="translate(-710.000000, -1242.000000)">
            <g id="Group-58" transform="translate(680.000000, 1242.000000)">
                <g id="Group-6" transform="translate(30.000000, 0.000000)">
                    <g id="Group-36">
                        <path d="M40,0 C62.09139,0 80,17.90861 80,40 C80,62.09139 62.09139,80 40,80 C17.90861,80 0,62.09139 0,40 C0,17.90861 17.90861,0 40,0 Z M40,8 C22.326888,8 8,22.326888 8,40 C8,57.673112 22.326888,72 40,72 C57.673112,72 72,57.673112 72,40 C72,22.326888 57.673112,8 40,8 Z" id="Combined-Shape" fill-opacity="0.2" fill="#FCD800"></path>
                        <path d="M46.5117647,43.0017544 C45.8764706,42.6210526 45.4,42.022807 45.1882353,41.3157895 C44.4470588,38.8140351 42.3823529,37.1824561 40,37.1824561 C37.6176471,37.1824561 35.5529412,38.8684211 34.8117647,41.3157895 C34.6,42.022807 34.1235294,42.6210526 33.4882353,43.0017544 C29.7823529,45.177193 29.2529412,49.5280702 29.2529412,51.9210526 C29.2529412,53.5526316 30.3647059,54.8578947 32.1647059,55.2929825 C34.6529412,55.945614 38.0411765,54.9122807 39.5235294,52.1385965 C39.6823529,51.8666667 39.8941176,51.8122807 40,51.8122807 C40.1058824,51.8122807 40.3705882,51.8666667 40.5294118,52.1385965 C41.6941176,54.3684211 44.1294118,55.4561404 46.3529412,55.4561404 C46.8823529,55.4561404 47.4117647,55.4017544 47.8882353,55.2929825 C49.6882353,54.8035088 50.8,53.5526316 50.8,51.9210526 C50.7470588,49.4736842 50.2176471,45.177193 46.5117647,43.0017544 Z M47.4647059,53.7157895 C45.6117647,54.2052632 42.9647059,53.4438596 41.9058824,51.377193 C41.5352941,50.6701754 40.7941176,50.1807018 40,50.1807018 C39.2058824,50.1807018 38.4647059,50.6157895 38.0941176,51.377193 C37.0352941,53.3894737 34.3882353,54.1508772 32.5352941,53.6614035 C31.9,53.4982456 30.8411765,53.0631579 30.8411765,51.8666667 C30.8411765,49.8 31.2647059,46.1561404 34.2823529,44.3614035 C35.2882353,43.7631579 35.9764706,42.8385965 36.3470588,41.7508772 C36.8764706,39.9561404 38.3588235,38.7596491 40,38.7596491 C41.6411765,38.7596491 43.1235294,39.9561404 43.6529412,41.7508772 C43.9705882,42.8385965 44.7117647,43.8175439 45.7176471,44.3614035 C48.7352941,46.1017544 49.1588235,49.8 49.1588235,51.8666667 C49.1588235,53.0631579 48.1,53.5526316 47.4647059,53.7157895 Z" id="Shape" fill="#000000" fill-rule="nonzero"></path>
                        <path d="M32.5352941,39.1403509 C32.3235294,37.7807018 31.6352941,36.4210526 30.5235294,35.2789474 C28.2470588,32.9403509 24.9647059,32.4508772 23.2176471,34.245614 C22.3176471,35.1701754 22,36.4754386 22.2117647,37.9438596 C22.4235294,39.3035088 23.1117647,40.6631579 24.2235294,41.8052632 C25.5470588,43.1649123 27.2411765,43.9263158 28.7764706,43.9263158 C29.8352941,43.9263158 30.8411765,43.545614 31.5294118,42.8385965 C32.3764706,41.8596491 32.7470588,40.554386 32.5352941,39.1403509 Z M30.3647059,41.6421053 C29.2529412,42.7842105 26.9235294,42.2947368 25.2823529,40.6087719 C24.4352941,39.7385965 23.9058824,38.7052632 23.7470588,37.6719298 C23.5882353,36.7473684 23.8,35.9315789 24.3294118,35.3877193 C24.7529412,34.9526316 25.3352941,34.7350877 25.9705882,34.7350877 C27.0823529,34.7350877 28.3529412,35.3333333 29.4117647,36.3666667 C30.2588235,37.2368421 30.7882353,38.2701754 30.9470588,39.3035088 C31.1058824,40.2824561 30.8941176,41.0982456 30.3647059,41.6421053 Z" id="Shape" fill="#000000" fill-rule="nonzero"></path>
                        <path d="M56.7823529,34.245614 C55.0352941,32.4508772 51.7529412,32.8859649 49.4764706,35.2789474 C48.4176471,36.3666667 47.6764706,37.7263158 47.4647059,39.1403509 C47.2529412,40.6087719 47.6235294,41.9140351 48.4705882,42.8385965 C49.2117647,43.6 50.1647059,43.9263158 51.2235294,43.9263158 C52.7588235,43.9263158 54.4529412,43.2192982 55.7764706,41.8052632 C56.8352941,40.7175439 57.5764706,39.3578947 57.7882353,37.9438596 C58.0529412,36.4754386 57.6823529,35.1701754 56.7823529,34.245614 Z M56.2529412,37.6719298 C56.0941176,38.7052632 55.5647059,39.7385965 54.7176471,40.6087719 C53.0764706,42.2947368 50.7470588,42.7298246 49.6352941,41.6421053 C49.1058824,41.0982456 48.9470588,40.3368421 49.0529412,39.3578947 C49.2117647,38.3245614 49.7411765,37.2912281 50.5882353,36.4210526 C51.5941176,35.3877193 52.9176471,34.7894737 54.0294118,34.7894737 C54.6647059,34.7894737 55.2470588,35.0070175 55.6705882,35.4421053 C56.2,35.9315789 56.3588235,36.7473684 56.2529412,37.6719298 Z" id="Shape" fill="#000000" fill-rule="nonzero"></path>
                        <path d="M33.3294118,36.6385965 C33.9647059,36.9649123 34.6,37.1824561 35.2882353,37.1824561 C35.6588235,37.1824561 36.0823529,37.1280702 36.4529412,37.0192982 C38.8352941,36.2035088 40.1058824,32.9947368 39.2588235,29.8403509 C38.7823529,28.1 37.7235294,26.6315789 36.4,25.8701754 C35.3941176,25.3263158 34.2823529,25.2175439 33.2764706,25.5438596 C30.8941176,26.3596491 29.6235294,29.5684211 30.4705882,32.722807 C30.8941176,34.4631579 31.9529412,35.877193 33.3294118,36.6385965 Z M33.7529412,27.0666667 C33.9647059,27.0122807 34.2294118,26.9578947 34.4411765,26.9578947 C34.9176471,26.9578947 35.3411765,27.1210526 35.6588235,27.2842105 C36.6117647,27.8280702 37.4058824,28.9157895 37.7235294,30.2210526 C38.3058824,32.5052632 37.5117647,34.8438596 35.9235294,35.3877193 L35.9235294,35.3877193 C35.1823529,35.6596491 34.4941176,35.3877193 34.0705882,35.1701754 C33.1176471,34.6263158 32.3235294,33.5385965 32.0058824,32.2333333 C31.3705882,29.9491228 32.1647059,27.6105263 33.7529412,27.0666667 Z" id="Shape" fill="#000000" fill-rule="nonzero"></path>
                        <path d="M43.6,36.9649123 C43.9705882,37.0736842 44.3411765,37.1280702 44.7647059,37.1280702 C45.4,37.1280702 46.0882353,36.9649123 46.7235294,36.5842105 C48.0470588,35.822807 49.1058824,34.4087719 49.5823529,32.6140351 C50.4294118,29.4596491 49.1588235,26.2508772 46.7764706,25.4350877 C45.7705882,25.1087719 44.6588235,25.2175439 43.6529412,25.7614035 C42.3294118,26.522807 41.2705882,27.9368421 40.7941176,29.7315789 C39.8941176,32.9403509 41.1647059,36.1491228 43.6,36.9649123 Z M42.2764706,30.2210526 C42.6470588,28.9157895 43.3882353,27.7736842 44.3411765,27.2842105 C44.6588235,27.1210526 45.0823529,26.9578947 45.5588235,26.9578947 C45.7705882,26.9578947 45.9823529,27.0122807 46.2470588,27.0666667 C47.8352941,27.6105263 48.6294118,29.9491228 48.0470588,32.2333333 C47.6764706,33.5385965 46.9352941,34.6807018 45.9823529,35.1701754 C45.5588235,35.3877193 44.8705882,35.6596491 44.1294118,35.3877193 L44.1294118,35.3877193 C42.4882353,34.8982456 41.6941176,32.5052632 42.2764706,30.2210526 Z" id="Shape" fill="#000000" fill-rule="nonzero"></path>
                    </g>
                </g>
            </g>
        </g>
    </g>
</svg>