<?xml version="1.0" encoding="UTF-8"?>
<svg width="80px" height="80px" viewBox="0 0 80 80" version="1.1" xmlns="http://www.w3.org/2000/svg" xmlns:xlink="http://www.w3.org/1999/xlink">
    <!-- Generator: Sketch 62 (91390) - https://sketch.com -->
    <title>Group 4</title>
    <desc>Created with Sketch.</desc>
    <g id="Page-1" stroke="none" stroke-width="1" fill="none" fill-rule="evenodd">
        <g id="Home_Final" transform="translate(-497.000000, -1242.000000)">
            <g id="Group-19" transform="translate(467.000000, 1242.000000)">
                <g id="Group-4" transform="translate(30.000000, 0.000000)">
                    <path d="M40,0 C62.09139,0 80,17.90861 80,40 C80,62.09139 62.09139,80 40,80 C17.90861,80 0,62.09139 0,40 C0,17.90861 17.90861,0 40,0 Z M40,8 C22.326888,8 8,22.326888 8,40 C8,57.673112 22.326888,72 40,72 C57.673112,72 72,57.673112 72,40 C72,22.326888 57.673112,8 40,8 Z" id="Combined-Shape" fill-opacity="0.2" fill="#FCD800"></path>
                    <g id="Group-24" transform="translate(23.000000, 20.000000)" fill-rule="nonzero">
                        <path d="M33.0893246,32.3485839 L33.0893246,36.7930283 C33.0893246,38.0479303 32.0697168,39.0675381 30.8148148,39.0675381 L28.9150327,39.0675381 C27.6601307,39.0675381 26.6405229,38.0479303 26.6405229,36.7930283 L26.6405229,34.6666667 L26.6405229,34.6318083 L30.8148148,34.6318083 C32.0697168,34.6230937 33.0893246,33.6034858 33.0893246,32.3485839 Z" id="Path" fill="#FFFFFF"></path>
                        <path d="M33.0893246,31.7821351 L33.0893246,32.3485839 C33.0893246,33.6034858 32.0697168,34.6230937 30.8148148,34.6230937 L26.6405229,34.6230937 L7.36383442,34.6230937 L3.18954248,34.6230937 C1.93464052,34.6230937 0.91503268,33.6034858 0.91503268,32.3485839 L0.91503268,30.832244 L0.91503268,26.6840959 C0.91503268,25.6819172 1.35947712,24.7320261 2.11764706,24.0784314 L3.416122,22.9803922 L19.3551198,22.9803922 L27.7821351,22.9803922 L31.0413943,22.9803922 L31.0413943,23.0152505 L32.0174292,23.9389978 C32.6971678,24.583878 33.0893246,25.4814815 33.0893246,26.422658 L33.0893246,31.7821351 Z M29.751634,31.0239651 L29.751634,27.3028322 L24.3224401,27.3028322 L24.3224401,31.0239651 L29.751634,31.0239651 Z M9.68191721,31.0239651 L9.68191721,27.3028322 L4.25272331,27.3028322 L4.25272331,31.0239651 L9.68191721,31.0239651 Z" id="Shape" fill="#FFFFFF"></path>
                        <g id="Group" transform="translate(0.867102, 0.871460)" fill="#FFFFFF">
                            <path d="M27.6906318,15.0936819 L30.2875817,22.1089325 L30.1742919,22.1089325 L26.9150327,22.1089325 C26.9150327,19.7908497 25.0152505,17.8997821 22.7058824,17.8997821 C20.3965142,17.8997821 18.4880174,19.7908497 18.4880174,22.1002179 L2.54901961,22.1002179 L2.43572985,22.1002179 L5.03267974,15.0849673 C5.36383442,14.1960784 6.21786492,13.5947712 7.16775599,13.5947712 L25.546841,13.5947712 C26.5054466,13.6034858 27.3594771,14.1960784 27.6906318,15.0936819 Z" id="Path"></path>
                            <path d="M30.2701525,3.38126362 L26.8801743,3.10239651 L26.8627451,3.12854031 C26.1220044,4.10457516 26.130719,5.45533769 26.8801743,6.42265795 L26.8801743,6.42265795 L30.2527233,6.16122004 C29.6514161,8.5577342 27.8039216,9.73420479 25.6078431,9.73420479 C23.5947712,9.75163399 21.8605664,8.41830065 21.1198257,6.84095861 L11.3333333,6.84095861 C10.6971678,8.95860566 8.8583878,10.1960784 6.66230937,10.1960784 C4.46623094,10.1960784 2.61002179,8.97603486 1.9912854,6.84095861 L5.38126362,7.11982571 L5.39869281,7.09368192 C6.13943355,6.11764706 6.13071895,4.76688453 5.38126362,3.79956427 L5.38126362,3.79956427 L2.0087146,4.06100218 C2.5664488,1.62962963 4.42265795,0.453159041 6.61873638,0.453159041 C8.61437908,0.453159041 10.3660131,1.76906318 11.124183,3.36383442 L20.9368192,3.36383442 C21.5729847,1.24618736 23.4117647,0.00871459695 25.5991285,0.00871459695 C27.795207,0.0348583878 29.6514161,1.24618736 30.2701525,3.38126362 Z" id="Path"></path>
                            <rect id="Rectangle" x="23.4553377" y="26.4313725" width="5.4291939" height="3.7211329"></rect>
                            <path d="M26.9063181,22.1002179 L18.4880174,22.1002179 C18.4880174,19.7821351 20.3877996,17.8910675 22.6971678,17.8910675 C25.0065359,17.8910675 26.9063181,19.7908497 26.9063181,22.1002179 Z" id="Path"></path>
                            <rect id="Rectangle" x="3.38562092" y="26.4313725" width="5.4291939" height="3.7211329"></rect>
                            <path d="M6.49673203,33.7864924 L6.49673203,35.912854 C6.49673203,37.167756 5.47712418,38.1873638 4.22222222,38.1873638 L2.32244009,38.1873638 C1.06753813,38.1873638 0.0479302832,37.167756 0.0479302832,35.912854 L0.0479302832,31.4684096 C0.0479302832,32.7233115 1.06753813,33.7429194 2.32244009,33.7429194 L6.49673203,33.7429194 L6.49673203,33.7864924 Z" id="Path"></path>
                        </g>
                        <path d="M3.18954248,39.9302832 L5.08932462,39.9302832 C6.82352941,39.9302832 8.20043573,38.5185185 8.20043573,36.7843137 L8.20043573,35.4858388 L25.8039216,35.4858388 L25.8039216,36.7843137 C25.8039216,38.5185185 27.1808279,39.9302832 28.9150327,39.9302832 L30.8148148,39.9302832 C32.5490196,39.9302832 33.9956427,38.5185185 33.9956427,36.7843137 L33.9956427,32.3398693 L33.9956427,26.4139434 C33.9956427,25.2374728 33.4901961,24.1045752 32.6361656,23.2941176 L31.9912854,22.6928105 C31.9912854,22.6840959 31.9825708,22.6753813 31.9738562,22.6579521 L29.3769063,15.6601307 C28.9237473,14.4313725 27.7298475,13.6122004 26.422658,13.6122004 L8.03485839,13.6122004 C6.72766885,13.6122004 5.54248366,14.4313725 5.08061002,15.6601307 L2.50980392,22.5969499 L1.53376906,23.4074074 C0.575163399,24.2265795 -4.84460956e-14,25.4117647 -4.84460956e-14,26.6753813 L-4.84460956e-14,32.3398693 L-4.84460956e-14,36.7843137 C0.00871459695,38.5185185 1.45533769,39.9302832 3.18954248,39.9302832 Z M6.45751634,36.7843137 C6.45751634,37.5599129 5.86492375,38.1873638 5.08932462,38.1873638 L3.18954248,38.1873638 C2.41394336,38.1873638 1.75163399,37.5599129 1.75163399,36.7843137 L1.75163399,35.1633987 C2.18736383,35.372549 2.68409586,35.4858388 3.18954248,35.4858388 L6.45751634,35.4858388 L6.45751634,36.7843137 Z M30.8148148,38.1873638 L28.9150327,38.1873638 C28.1394336,38.1873638 27.546841,37.5599129 27.546841,36.7843137 L27.546841,35.4858388 L30.8148148,35.4858388 C31.3202614,35.4858388 31.8169935,35.372549 32.2527233,35.1633987 L32.2527233,36.7843137 C32.2527233,37.5599129 31.5904139,38.1873638 30.8148148,38.1873638 Z M6.71895425,16.2527233 C6.91938998,15.7037037 7.45098039,15.3551198 8.03485839,15.3551198 L26.4139434,15.3551198 C26.9978214,15.3551198 27.5294118,15.7037037 27.7298475,16.2527233 L29.8997821,22.0653595 L28.5664488,22.0653595 C28.1481481,19.7124183 26.0653595,17.8562092 23.5555556,17.8562092 C21.0457516,17.8562092 18.9716776,19.7124183 18.5620915,22.0653595 L4.5577342,22.0653595 L6.71895425,16.2527233 Z M26.788671,22.0653595 L20.3398693,22.0653595 C20.7233115,20.671024 22.0217865,19.5991285 23.5642702,19.5991285 C25.1067538,19.5991285 26.4052288,20.671024 26.788671,22.0653595 Z M1.75163399,26.6840959 C1.75163399,25.9346405 2.10021786,25.211329 2.66666667,24.7233115 L3.73856209,23.8082789 L30.6492375,23.8082789 L31.4335512,24.5490196 C31.9389978,25.0283224 32.2440087,25.7167756 32.2440087,26.4139434 L32.2440087,32.3398693 C32.2440087,33.1154684 31.5816993,33.7342048 30.8061002,33.7342048 L3.18082789,33.7342048 C2.40522876,33.7342048 1.74291939,33.1154684 1.74291939,32.3398693 L1.74291939,26.6840959 L1.75163399,26.6840959 L1.75163399,26.6840959 Z" id="Shape" fill="#000000"></path>
                        <path d="M10.5533769,27.2941176 C10.5533769,26.8148148 10.16122,26.422658 9.68191721,26.422658 L4.2788671,26.422658 C3.79956427,26.422658 3.40740741,26.8148148 3.40740741,27.2941176 L3.40740741,31.0413943 C3.40740741,31.5206972 3.79956427,31.912854 4.2788671,31.912854 L9.68191721,31.912854 C10.16122,31.912854 10.5533769,31.5206972 10.5533769,31.0413943 L10.5533769,27.2941176 Z M5.1503268,28.1655773 L8.81045752,28.1655773 L8.81045752,30.1699346 L5.1503268,30.1699346 L5.1503268,28.1655773 Z" id="Shape" fill="#000000"></path>
                        <path d="M30.5969499,27.2941176 C30.5969499,26.8148148 30.204793,26.422658 29.7254902,26.422658 L24.3224401,26.422658 C23.8431373,26.422658 23.4509804,26.8148148 23.4509804,27.2941176 L23.4509804,31.0413943 C23.4509804,31.5206972 23.8431373,31.912854 24.3224401,31.912854 L29.7254902,31.912854 C30.204793,31.912854 30.5969499,31.5206972 30.5969499,31.0413943 L30.5969499,27.2941176 Z M25.1938998,28.1655773 L28.8540305,28.1655773 L28.8540305,30.1699346 L25.1938998,30.1699346 L25.1938998,28.1655773 Z" id="Shape" fill="#000000"></path>
                        <path d="M13.5337691,31.1285403 L20.4793028,31.1285403 C20.9586057,31.1285403 21.3507625,30.7363834 21.3507625,30.2570806 C21.3507625,29.7777778 20.9586057,29.3856209 20.4793028,29.3856209 L13.5337691,29.3856209 C13.0544662,29.3856209 12.6623094,29.7777778 12.6623094,30.2570806 C12.6623094,30.7363834 13.0457516,31.1285403 13.5337691,31.1285403 Z" id="Path" fill="#000000"></path>
                        <path d="M13.5337691,28.9498911 L20.4793028,28.9498911 C20.9586057,28.9498911 21.3507625,28.5577342 21.3507625,28.0784314 C21.3507625,27.5991285 20.9586057,27.2069717 20.4793028,27.2069717 L13.5337691,27.2069717 C13.0544662,27.2069717 12.6623094,27.5991285 12.6623094,28.0784314 C12.6623094,28.5577342 13.0457516,28.9498911 13.5337691,28.9498911 Z" id="Path" fill="#000000"></path>
                        <path d="M2.94553377,6.84095861 C2.65795207,6.81481481 2.37908497,6.93681917 2.19607843,7.1546841 C2.0130719,7.37254902 1.95206972,7.67755991 2.03050109,7.94771242 C2.72766885,10.3616558 4.88888889,11.9215686 7.53812636,11.9215686 C9.96078431,11.9215686 11.9302832,10.6492375 12.8191721,8.5577342 L21.4640523,8.5577342 C22.379085,10.1263617 24.1568627,11.459695 26.4139434,11.459695 C26.4313725,11.459695 26.4488017,11.4684096 26.4662309,11.4684096 C27.7647059,11.4684096 28.9586057,11.1023965 29.8997821,10.4139434 C30.9106754,9.67320261 31.6252723,8.5751634 31.956427,7.24183007 C32.0261438,6.97167756 31.956427,6.68409586 31.7734205,6.46623094 C31.5904139,6.24836601 31.3202614,6.13507625 31.0413943,6.16122004 L28.2004357,6.37908497 C27.9912854,5.90849673 27.9912854,5.35947712 28.2004357,4.88888889 L31.0588235,5.12418301 C31.3464052,5.1503268 31.6252723,5.02832244 31.8082789,4.81045752 C31.9912854,4.59259259 32.0522876,4.2875817 31.9738562,4.01742919 C31.2766885,1.61220044 29.124183,0.0261437908 26.4923747,-4.84460956e-14 C24.0610022,-4.84460956e-14 22.1002179,1.23747277 21.211329,3.32897603 L12.5228758,3.32897603 C11.4684096,1.58605664 9.50762527,0.435729847 7.49455338,0.435729847 C6.18736383,0.435729847 5.00217865,0.810457516 4.06100218,1.50762527 C3.05010893,2.25708061 2.35294118,3.37254902 2.03921569,4.73202614 C1.97821351,5.00217865 2.04793028,5.28976035 2.23093682,5.49891068 C2.41394336,5.708061 2.68409586,5.82135076 2.96296296,5.80392157 L5.80392157,5.58605664 C6.0130719,6.05664488 6.02178649,6.60566449 5.80392157,7.07625272 L2.94553377,6.84095861 Z M6.97167756,4.16557734 C6.93681917,4.12200436 6.90196078,4.06971678 6.8583878,4.03485839 C6.68409586,3.86928105 6.44008715,3.79084967 6.19607843,3.80827887 L4.19172113,3.96514161 C4.8453159,2.83224401 5.9956427,2.20479303 7.50326797,2.20479303 C9.01960784,2.20479303 10.5446623,3.18082789 11.2244009,4.60130719 C11.372549,4.90631808 11.6775599,5.08061002 12.0087146,5.08061002 L21.8213508,5.08061002 C22.204793,5.08061002 22.5446623,4.8453159 22.6579521,4.47930283 C23.1633987,2.79738562 24.6361656,1.76034858 26.4836601,1.76034858 C27.8344227,1.76906318 28.9760349,2.32679739 29.6906318,3.26797386 L27.8257081,3.11111111 C27.5206972,3.08496732 27.2331155,3.22440087 27.0501089,3.46840959 L27.0326797,3.48583878 C26.0653595,4.76688453 26.0740741,6.53594771 27.0413943,7.80827887 C27.0762527,7.85185185 27.1111111,7.90413943 27.1546841,7.93899782 C27.328976,8.10457516 27.5729847,8.19172113 27.8169935,8.16557734 L29.7864924,8.0087146 C29.1154684,9.11546841 27.956427,9.73420479 26.4662309,9.73420479 C26.4575163,9.73420479 26.4400871,9.73420479 26.4313725,9.73420479 C24.6884532,9.73420479 23.3202614,8.48801743 22.7799564,7.33769063 C22.6405229,7.03267974 22.3267974,6.82352941 21.9869281,6.82352941 L12.2091503,6.82352941 C11.8257081,6.82352941 11.4858388,7.08496732 11.372549,7.45098039 C10.8671024,9.1328976 9.39433551,10.1873638 7.53812636,10.1873638 C6.17864924,10.1873638 5.03703704,9.64705882 4.32244009,8.70588235 L6.18736383,8.8627451 C6.49237473,8.88888889 6.77995643,8.75816993 6.96296296,8.51416122 L6.98039216,8.49673203 C7.94771242,7.20697168 7.93899782,5.4379085 6.97167756,4.16557734 Z" id="Shape" fill="#000000"></path>
                    </g>
                </g>
            </g>
        </g>
    </g>
</svg>