<?xml version="1.0" standalone="no"?>
<!DOCTYPE svg PUBLIC "-//W3C//DTD SVG 20010904//EN"
 "http://www.w3.org/TR/2001/REC-SVG-20010904/DTD/svg10.dtd">
<svg version="1.0" xmlns="http://www.w3.org/2000/svg"
 width="1626.000000pt" height="1536.000000pt" viewBox="0 0 1626.000000 1536.000000"
 preserveAspectRatio="xMidYMid meet">

<g transform="translate(0.000000,1536.000000) scale(0.100000,-0.100000)"
fill="#000000" stroke="none">
<path d="M5380 9945 c-226 -36 -440 -146 -605 -311 -170 -170 -282 -390 -315
-619 -8 -58 -10 -544 -8 -1760 l3 -1680 27 -100 c108 -388 407 -686 796 -793
l97 -27 635 -3 c678 -3 729 -1 875 45 102 32 255 110 337 172 96 73 226 217
285 316 96 160 144 321 159 525 4 68 10 99 18 96 126 -53 322 -98 481 -111
154 -12 421 28 564 85 30 11 55 19 56 18 1 -2 7 -57 13 -123 19 -202 66 -346
163 -503 57 -93 185 -233 277 -303 82 -62 235 -140 337 -172 146 -46 197 -48
875 -45 l635 3 97 27 c389 107 688 405 796 793 l27 100 3 1680 c2 1216 0 1702
-8 1760 -23 155 -84 313 -175 450 -171 257 -449 434 -755 480 -118 18 -1191
22 -1316 4 -365 -51 -680 -277 -844 -608 -93 -185 -111 -280 -117 -622 l-5
-277 -85 29 c-165 56 -270 73 -463 73 -198 -1 -308 -19 -474 -78 l-94 -33 -5
281 c-5 291 -13 353 -59 491 -130 392 -488 687 -902 744 -118 17 -1217 13
-1326 -4z m1358 -169 c22 -8 22 -10 22 -202 l0 -194 -675 0 -675 0 0 199 0
200 28 4 c48 8 1276 1 1300 -7z m4307 3 l75 -11 0 -159 0 -159 -675 0 -675 0
0 164 c0 163 0 165 23 169 53 10 1179 7 1252 -4z m-1445 -269 l0 -230 845 0
845 0 0 210 c0 148 3 210 11 210 19 0 130 -70 202 -128 137 -109 262 -303 309
-482 l23 -85 0 -1710 0 -1710 -28 -90 c-99 -315 -327 -543 -644 -642 l-88 -28
-633 -3 c-549 -2 -646 -1 -720 13 -278 52 -533 247 -665 510 -60 120 -97 298
-97 466 l0 76 82 54 c104 68 261 218 343 328 119 158 213 368 257 574 29 136
31 398 4 532 -77 391 -300 730 -614 933 l-73 47 4 315 c5 343 11 386 68 528
87 219 264 405 482 507 39 19 75 34 80 35 4 0 7 -103 7 -230z m-4360 -40 l0
-260 845 0 845 0 0 250 c0 138 2 250 5 250 12 0 93 -45 150 -83 145 -98 284
-270 345 -429 57 -147 62 -186 67 -533 l5 -320 -79 -54 c-110 -76 -286 -256
-362 -370 -84 -126 -125 -210 -171 -350 -54 -160 -73 -277 -73 -446 0 -486
229 -918 636 -1194 l47 -32 0 -82 c0 -174 -36 -350 -97 -472 -132 -262 -386
-457 -665 -510 -75 -14 -171 -15 -720 -13 l-633 3 -88 28 c-317 99 -545 327
-644 642 l-28 90 0 1710 0 1710 23 85 c47 179 171 371 310 484 65 53 243 155
270 156 9 0 12 -59 12 -260z m3225 -1110 c460 -85 846 -429 979 -872 109 -365
51 -751 -161 -1071 -61 -93 -197 -235 -293 -306 -357 -266 -844 -321 -1255
-141 -309 136 -566 412 -679 728 -93 261 -93 585 0 844 83 230 242 444 439
590 155 116 386 211 580 237 84 12 306 6 390 -9z"/>
<path d="M10750 7560 c-162 -4 -368 -8 -457 -9 l-163 -1 0 -86 0 -86 378 6
c207 3 446 9 530 12 l154 7 -6 30 c-3 16 -6 54 -6 83 l0 54 -67 -2 c-38 -1
-201 -5 -363 -8z"/>
<path d="M10620 6850 c-162 -4 -343 -8 -402 -9 l-108 -1 0 -86 0 -86 265 6
c889 21 797 16 791 40 -3 11 -6 49 -6 84 l0 62 -122 -2 c-68 -1 -256 -5 -418
-8z"/>
<path d="M5780 7528 c-250 -5 -461 -11 -468 -13 -9 -3 -12 -26 -10 -82 l3 -78
395 2 c217 2 455 6 528 9 l133 6 -3 82 -3 81 -60 1 c-33 1 -265 -3 -515 -8z"/>
<path d="M5810 6820 c-162 -4 -348 -8 -412 -9 l-118 -1 0 -86 0 -86 298 6
c163 3 402 9 530 12 l232 6 0 84 0 84 -117 -2 c-65 -1 -251 -5 -413 -8z"/>
<path d="M8165 7880 c-98 -20 -159 -52 -226 -119 -75 -75 -104 -137 -122 -259
-30 -201 77 -410 241 -473 31 -12 116 -30 187 -41 149 -22 191 -39 220 -88 47
-81 8 -246 -79 -331 -89 -88 -222 -122 -335 -84 -68 22 -149 97 -181 167 -13
29 -26 55 -27 57 -2 2 -39 -4 -83 -14 -92 -21 -89 -14 -40 -123 33 -70 109
-157 179 -201 192 -122 458 -83 617 90 142 155 180 382 91 530 -62 101 -133
136 -332 164 -137 19 -189 38 -228 85 -62 73 -83 192 -52 295 60 209 351 248
549 74 l46 -41 37 30 c21 17 49 42 63 57 l25 27 -53 49 c-126 116 -341 180
-497 149z"/>
</g>
</svg>
