<?xml version="1.0" encoding="UTF-8"?>
<svg width="80px" height="80px" viewBox="0 0 80 80" version="1.1" xmlns="http://www.w3.org/2000/svg" xmlns:xlink="http://www.w3.org/1999/xlink">
    <!-- Generator: Sketch 62 (91390) - https://sketch.com -->
    <title>Group 9</title>
    <desc>Created with Sketch.</desc>
    <g id="Page-1" stroke="none" stroke-width="1" fill="none" fill-rule="evenodd">
        <g id="Home_Final" transform="translate(-1137.000000, -1242.000000)">
            <g id="Group-9" transform="translate(1137.000000, 1242.000000)">
                <g id="Group-33" fill="#FCD800" fill-opacity="0.2">
                    <g id="Group-17-Copy">
                        <path d="M40,0 C62.09139,0 80,17.90861 80,40 C80,62.09139 62.09139,80 40,80 C17.90861,80 0,62.09139 0,40 C0,17.90861 17.90861,0 40,0 Z M40,8 C22.326888,8 8,22.326888 8,40 C8,57.673112 22.326888,72 40,72 C57.673112,72 72,57.673112 72,40 C72,22.326888 57.673112,8 40,8 Z" id="Combined-Shape"></path>
                    </g>
                </g>
                <g id="Group-38" transform="translate(20.000000, 22.000000)" fill-rule="nonzero">
                    <g id="Group-27">
                        <g id="spaghetti">
                            <path d="M7.92040441,20.8567953 C7.27327819,19.5023529 7.33178309,17.9166544 8.07610294,16.6133701 C8.67773284,15.5549571 8.67773284,14.258413 8.07610294,13.2 C7.27617647,11.7921752 7.27617647,10.0672917 8.07610294,8.65946691 C8.28120711,8.15947917 8.43744485,7.64136029 8.54313113,7.11185049 L9.65216299,7.36184436 C9.52322304,8.00270221 9.3260723,8.6281924 9.06354167,9.22759804 C8.46245098,10.286011 8.46245098,11.5819485 9.06354167,12.6404289 C9.86461397,14.0477145 9.86461397,15.7736765 9.06354167,17.180962 C8.5045098,18.1604473 8.46015931,19.3512377 8.94592525,20.3693444 L7.92040441,20.8567953 Z" id="Path" fill="#FA962A"></path>
                            <path d="M33.5286336,27.6920956 L30.5703615,27.6920956 C29.994277,24.1060417 26.9098284,21.4630086 23.2783456,21.4425858 C23.2351409,21.4425858 23.1925429,21.4471017 23.148799,21.4477083 C21.4767586,19.9466667 19.2990686,19.133125 17.0526961,19.1700613 C14.8330147,19.1700613 12.6899694,19.9836029 11.0304657,21.4579534 C10.9537623,21.4551225 10.8782047,21.4425858 10.8031863,21.4425858 C7.17163603,21.4630086 4.0872549,24.1065809 3.51170956,27.6920956 L0.576691176,27.6920956 C0.263069853,27.6920956 0.00856004902,27.9466054 0.00856004902,28.2602267 C0.0125367647,31.7099265 2.8083701,34.5057598 6.25806985,34.5097365 L27.8473223,34.5097365 C31.2970221,34.5057598 34.0928554,31.7099265 34.0968321,28.2602267 C34.0968321,27.9459988 33.8422549,27.6920956 33.5286336,27.6920956 Z M29.4232475,27.6920956 L28.2636642,27.6920956 C27.8665319,25.9666728 26.6063848,24.5684865 24.9315135,23.9952328 C24.7355086,23.5236887 24.4889522,23.0737132 24.1975061,22.6544056 C26.8297549,23.0588848 28.9221814,25.0763603 29.4232475,27.6920956 Z M13.405239,27.6920956 C12.7757721,26.255288 11.1009007,25.6002083 9.66348652,26.2297426 C9.0095527,26.5160662 8.48745711,27.0382292 8.20113358,27.6920956 L6.99666054,27.6920956 C7.62612745,25.5899632 9.84075368,24.3957353 11.942886,25.0252696 C13.2240625,25.4087868 14.2256556,26.4109865 14.609712,27.6920956 L13.405239,27.6920956 Z M12.071826,27.6920956 L9.53454657,27.6920956 C10.1600368,26.991587 11.2349632,26.9302512 11.9354718,27.5557414 C11.9831924,27.5983395 12.0286213,27.6437684 12.071826,27.6920956 Z M17.0526287,22.5788464 C18.5502328,22.5839706 19.9853554,23.1799387 21.0455208,24.2372059 C20.6955699,24.4076654 20.3660417,24.6172855 20.0632047,24.8621569 C18.3445895,23.3270772 15.7459069,23.3299081 14.0307292,24.8689645 C13.729038,24.6206556 13.4006556,24.4082047 13.0507047,24.234375 C14.1119485,23.1736703 15.5516544,22.5777022 17.0526287,22.5788464 Z M19.2445404,27.6920956 C18.9365809,26.4814216 17.7048775,25.7496385 16.4942034,26.057598 C16.0914093,26.1604534 15.7244056,26.3717586 15.4334988,26.669473 C15.2704534,26.3177696 15.0676409,25.9854105 14.8289706,25.6797426 C15.4454289,25.1434252 16.2356495,24.8491483 17.0526287,24.85136 C18.714424,24.8542034 20.1319547,26.0540931 20.4103248,27.6920282 L19.2445404,27.6920282 L19.2445404,27.6920956 Z M18.0309681,27.6920956 L16.0742892,27.6920956 C16.382788,27.1518015 17.0708272,26.96375 17.6111213,27.2722488 C17.7860968,27.3722059 17.931011,27.5170527 18.0309681,27.6920956 Z M25.8809375,27.6920956 C25.2605025,26.2586581 23.595337,25.5996691 22.1618995,26.2206434 C21.8579167,26.3524816 21.5795466,26.5359498 21.3392586,26.764375 C21.2108578,26.3933946 21.0352757,26.041152 20.8160172,25.7156005 C22.5289706,24.3515196 25.0230453,24.6338664 26.3871936,26.3468199 C26.7053309,26.7462439 26.9433946,27.203027 27.0877022,27.6927696 L25.8810049,27.6927696 L25.8810049,27.6920956 L25.8809375,27.6920956 Z M24.5475245,27.6920956 L22.0102451,27.6920956 C22.6357353,26.991587 23.7106618,26.9302512 24.4111703,27.5557414 C24.4588909,27.5983395 24.5043199,27.6437684 24.5475245,27.6920956 Z M17.0526287,20.3062561 C19.8711765,20.3062561 22.3198223,21.6260539 23.532788,23.7270404 C23.4481311,23.7225245 23.3623284,23.7151103 23.2782782,23.7151103 C22.9220588,23.7156495 22.5663787,23.7537316 22.2181127,23.82875 C20.1858762,21.4397549 16.7793137,20.7579841 13.9846936,22.1811765 C13.5455025,21.9675797 13.0858885,21.7976593 12.6131985,21.6749877 C13.9227512,20.7852145 15.4692218,20.3085478 17.0526287,20.3062561 Z M10.8031189,22.578848 C11.4888664,22.5828248 12.1689522,22.7004412 12.816011,22.9265748 C12.4751593,23.1992831 12.161538,23.5032659 11.8785846,23.835625 C9.14132353,23.2333885 6.43243873,24.9576654 5.81827206,27.692163 L4.65875613,27.692163 C5.22061887,24.7377328 7.79598039,22.5947549 10.8031189,22.578848 Z M27.8472549,33.3734743 L6.25806985,33.3734743 C3.65487132,33.3700368 1.46868873,31.4151103 1.17609681,28.8283578 L32.9292279,28.8283578 C32.636636,31.4145037 30.4499142,33.3700368 27.8472549,33.3734743 Z" id="Shape" fill="#000000"></path>
                            <path d="M3.88552083,7.23910539 L2.28108456,7.23910539 L2.28108456,8.37536765 L3.59178309,8.37536765 C3.54803922,8.47195466 3.50544118,8.56854167 3.45259804,8.65946691 C2.65152574,10.0667525 2.65152574,11.7927145 3.45259804,13.2 C4.05368873,14.258413 4.05368873,15.5549571 3.45259804,16.6133701 C2.6538174,18.0115564 2.64923407,19.7267341 3.43952206,21.1300429 C3.56280025,21.3794301 3.66390319,21.6396691 3.74235907,21.9067157 C3.78381127,22.0345772 3.8258701,22.1658088 3.87702819,22.3072855 L4.94629289,21.92269 C4.89971814,21.79375 4.86163603,21.6743811 4.82416054,21.5579779 C4.72474265,21.2250797 4.59634191,20.9012132 4.44010417,20.5904228 C3.83847426,19.5320098 3.83847426,18.2354657 4.44010417,17.1770527 C5.24063725,15.7692279 5.24063725,14.0443444 4.44010417,12.6365196 C3.83847426,11.5781066 3.83847426,10.2815625 4.44010417,9.22314951 C5.24063725,7.81532475 5.24063725,6.09044118 4.44010417,4.68261642 C3.84015931,3.62528186 3.84015931,2.33109681 4.44010417,1.27376225 C4.59688113,1.00219975 4.50373162,0.654473039 4.23216912,0.497696078 C4.14522059,0.447144608 4.04640931,0.420992647 3.94584559,0.42152369 L2.28108456,0.42152369 L2.28108456,1.55779412 L3.0764951,1.55779412 C2.95887868,1.92594363 2.88898284,2.30770833 2.86741422,2.69405637 L2.28108456,2.69405637 L2.28108456,3.83031863 L2.93441176,3.83031863 C3.00943015,4.22401348 3.13607843,4.60584559 3.31051471,4.96658088 L2.28108456,4.96658088 L2.28108456,6.10284314 L3.79574142,6.10284314 C3.88835172,6.47382353 3.91848039,6.8578799 3.88552083,7.23910539 Z" id="Path" fill="#000000"></path>
                            <path d="M30.994185,1.63220588 L14.4392525,2.11911765 L13.5745527,1.25327206 C13.0433578,0.718639706 12.3201348,0.419240196 11.5661765,0.421518803 L6.25806985,0.421518803 C5.97457721,0.421518803 5.73422181,0.630612745 5.69506127,0.91127451 C5.00304534,2.28506127 5.04395833,3.91329044 5.80357843,5.25068015 C6.40520833,6.30909314 6.40520833,7.60563725 5.80357843,8.66405025 C5.00304534,10.071875 5.00304534,11.7967586 5.80357843,13.2045833 C6.40520833,14.2629963 6.40520833,15.5595404 5.80357843,16.6179534 C5.00250613,18.0257782 5.00250613,19.751201 5.80357843,21.1590931 C5.88082108,21.2949081 5.94957108,21.4363174 6.00807598,21.5812316 L7.06143382,21.1562623 C6.98419118,20.9630882 6.89326593,20.7756434 6.78926471,20.5949387 C6.18817402,19.5365257 6.18817402,18.2399816 6.78926471,17.1815686 C7.59033701,15.7742831 7.59033701,14.0483211 6.78926471,12.6410355 C6.18817402,11.5826225 6.18817402,10.2860784 6.78926471,9.22766544 C6.9438174,8.95724877 7.07046569,8.67146446 7.1670527,8.37543505 L8.21299632,8.37543505 C8.16925245,8.47148284 8.12948529,8.5697549 8.07664216,8.65953431 C7.27671569,10.0673591 7.27671569,11.7922426 8.07664216,13.2000674 C8.67827206,14.2584804 8.67827206,15.5550245 8.07664216,16.6134375 C7.33292892,17.9161826 7.2738848,19.5007353 7.9198652,20.8545711 L8.94538603,20.365435 C8.4596201,19.3473284 8.50397059,18.156538 9.06300245,17.1770527 C9.86407475,15.7697672 9.86407475,14.0438051 9.06300245,12.6365196 C8.46191176,11.5781066 8.46191176,10.2821691 9.06300245,9.22368873 C9.21297181,8.95266544 9.33571078,8.66688113 9.42832108,8.37145833 L11.5656373,8.37145833 C12.3195282,8.37375 13.0428186,8.07435049 13.5740135,7.53971814 L14.4330515,6.68068015 L30.9056189,7.65389706 C32.5674142,7.74650735 33.9900674,6.47389093 34.0820711,4.81209559 C34.1746814,3.15030025 32.902065,1.72764706 31.2402696,1.63564338 C31.1583762,1.63106005 31.076011,1.62991422 30.994185,1.63220588 L30.994185,1.63220588 Z M32.3708027,6.01137868 C31.9958456,6.36813725 31.488511,6.55221201 30.9720772,6.51985907 L14.2454718,5.53471201 C14.0835723,5.52561275 13.9250429,5.5858701 13.8102574,5.70004902 L12.7711213,6.73918505 C12.4506924,7.05792892 12.0177696,7.23742034 11.5661091,7.23917279 L7.38294118,7.23917279 C7.40336397,6.85855392 7.37613358,6.47672181 7.30286765,6.10291054 L10.2350551,6.10291054 L10.2350551,4.96658088 L6.92568627,4.96658088 C6.88025735,4.87282475 6.84332108,4.77569853 6.79101716,4.68248162 C6.63929534,4.41489583 6.52457721,4.1285723 6.45016544,3.83025123 L10.2351225,3.83025123 L10.2351225,2.69405637 L6.35405025,2.69405637 C6.38532475,2.30143995 6.48413603,1.91684436 6.64549632,1.55779412 L11.5661765,1.55779412 C12.017837,1.55893995 12.4507598,1.73843137 12.7711887,2.05663603 L13.8103248,3.09577206 C13.9199877,3.20772672 14.0716422,3.26845588 14.2284865,3.2622549 L31.0288971,2.76799632 C32.0652022,2.73732843 32.9310478,3.55201593 32.9617157,4.58886029 C32.9776225,5.12571691 32.7634191,5.64329657 32.3725551,6.01144608 C32.3724877,6.01137868 32.3708027,6.01137868 32.3708027,6.01137868 Z" id="Shape" fill="#000000"></path>
                        </g>
                        <g id="wine" transform="translate(27.450980, 6.274510)">
                            <path d="M7.54898824,24.7932504 L6.86061176,24.7932504 L6.86061176,14.4672 L5.48377815,14.4672 L5.48377815,24.7932504 L4.79540168,24.7932504 C3.27472941,24.7932504 2.04181513,26.0261647 2.04181513,27.546837 L10.3026555,27.546837 C10.3026555,26.0262454 9.07030588,24.7932504 7.54898824,24.7932504 Z" id="Path" fill="#FFFFFF"></path>
                            <rect id="Rectangle" fill="#DEDEDE" x="5.48579496" y="14.4672" width="1.37683361" height="2.75358655"></rect>
                            <path d="M10.9840941,0.601411765 C10.9359328,0.26274958 10.6454319,0.0107294118 10.3025748,0.0107294118 L2.04173445,0.0107294118 C1.69960336,0.0107294118 1.40910252,0.262668908 1.36021513,0.601411765 L0.130043697,9.21333782 C0.021297479,9.97883697 0.0626016807,10.757405 0.251858824,11.5070924 L0.375771429,12.0020168 C0.976053782,14.4162151 3.01238319,16.2047193 5.48369748,16.488363 L5.48369748,24.1048739 L4.79532101,24.1048739 C2.89532773,24.1069714 1.35537479,25.6469244 1.35327731,27.5469176 C1.35327731,27.926884 1.66168739,28.2352941 2.04165378,28.2352941 L10.3024941,28.2352941 C10.6824605,28.2352941 10.9908706,27.926884 10.9908706,27.5469176 C10.9887731,25.6469244 9.44882017,24.1069714 7.54882689,24.1048739 L6.86045042,24.1048739 L6.86045042,16.488363 C9.33321681,16.2060908 11.370837,14.4183126 11.9718454,12.0033882 L12.095758,11.5091092 C12.2843697,10.7587765 12.3243025,9.9787563 12.2141849,9.21325714 L10.9840941,0.601411765 Z M9.49641681,26.8584605 L2.84781176,26.8584605 C3.14041008,26.0337479 3.92034958,25.4829983 4.79532101,25.4816269 L7.54890756,25.4816269 C8.42387899,25.483079 9.20389916,26.0337479 9.49641681,26.8584605 Z M2.6385479,1.38756303 L9.70568067,1.38756303 L10.8532437,9.40816134 C10.8649412,9.48867227 10.8690555,9.56853782 10.8759933,9.64840336 L1.47033277,9.64840336 C1.47718992,9.56853782 1.48138487,9.48867227 1.49308235,9.40816134 L2.6385479,1.38756303 Z M10.6364773,11.6702118 C10.0196571,14.1360403 7.52075294,15.6340437 5.05492437,15.0172235 C3.40687059,14.6049076 2.12022857,13.3182655 1.70791261,11.6702118 L1.584,11.1745613 C1.57157647,11.1250286 1.56544538,11.0747697 1.55439328,11.0251563 L10.7899966,11.0251563 C10.7789445,11.0754151 10.7728134,11.1256739 10.7603899,11.1752067 L10.6364773,11.6702118 Z" id="Shape" fill="#000000"></path>
                        </g>
                    </g>
                </g>
            </g>
        </g>
    </g>
</svg>