<?xml version="1.0" encoding="UTF-8"?>
<svg width="16px" height="18px" viewBox="0 0 16 18" version="1.1" xmlns="http://www.w3.org/2000/svg" xmlns:xlink="http://www.w3.org/1999/xlink">
    <!-- Generator: Sketch 63.1 (92452) - https://sketch.com -->
    <title>Group 67 Copy 3</title>
    <desc>Created with Sketch.</desc>
    <g id="Page-1" stroke="none" stroke-width="1" fill="none" fill-rule="evenodd">
        <g id="Softcom_Trabalhe-Conosco" transform="translate(-708.000000, -1573.000000)">
            <g id="Group-67-Copy-3" transform="translate(704.000000, 1570.000000)">
                <g id="arrowdown" transform="translate(4.312500, 2.953125)" fill="#000000" fill-rule="nonzero">
                    <path d="M8.71875,1.059375 L8.71875,14.5054688 C8.71875,14.5078125 8.7234375,14.5101563 8.7234375,14.5078125 L13.5984375,9.4359375 C13.9921875,9.02578125 14.6460938,9.01171875 15.05625,9.4078125 C15.4664063,9.8015625 15.4804688,10.4554688 15.084375,10.865625 L8.44921875,17.7703125 C8.2546875,17.971875 7.98515625,18.0867188 7.70625,18.0867188 C7.425,18.0867188 7.1578125,17.971875 6.96328125,17.7703125 L0.28828125,10.828125 C0.09609375,10.6289063 0,10.3710938 0,10.1132813 C0,9.84140625 0.10546875,9.571875 0.31640625,9.3703125 C0.7265625,8.9765625 1.38046875,8.98828125 1.77421875,9.3984375 L6.64921875,14.4703125 C6.6515625,14.4726563 6.65390625,14.4703125 6.65390625,14.4679688 L6.65390625,1.0359375 C6.65390625,0.4875 7.0828125,0.03984375 7.621875,0.00703125 C8.221875,-0.028125 8.71875,0.46171875 8.71875,1.059375 Z" id="Shape"></path>
                </g>
                <rect id="Rectangle-37" x="0" y="0" width="24" height="24"></rect>
            </g>
        </g>
    </g>
</svg>