<?xml version="1.0" encoding="UTF-8"?>
<svg width="80px" height="80px" viewBox="0 0 80 80" version="1.1" xmlns="http://www.w3.org/2000/svg" xmlns:xlink="http://www.w3.org/1999/xlink">
    <!-- Generator: Sketch 62 (91390) - https://sketch.com -->
    <title>Group 28</title>
    <desc>Created with Sketch.</desc>
    <g id="Page-1" stroke="none" stroke-width="1" fill="none" fill-rule="evenodd">
        <g id="Home_Final_Full" transform="translate(-253.000000, -1571.000000)">
            <g id="Group-28" transform="translate(253.000000, 1571.000000)">
                <g id="Group-31" fill="#FCD800" fill-opacity="0.2">
                    <g id="Group-29">
                        <g id="Group-31">
                            <g id="Group-29">
                                <path d="M40,0 C62.09139,0 80,17.90861 80,40 C80,62.09139 62.09139,80 40,80 C17.90861,80 0,62.09139 0,40 C0,17.90861 17.90861,0 40,0 Z M40,8 C22.326888,8 8,22.326888 8,40 C8,57.673112 22.326888,72 40,72 C57.673112,72 72,57.673112 72,40 C72,22.326888 57.673112,8 40,8 Z" id="Combined-Shape"></path>
                            </g>
                        </g>
                    </g>
                </g>
                <path d="M44.827907,29.1906977 C44.8911544,29.1759778 44.9525284,29.1541328 45.0108527,29.1255814 C45.3625424,28.9290958 45.5477899,28.5285608 45.4697674,28.1333333 L45.4697674,28.0248062 C45.3333333,26.4 45.0294574,22.6046512 39.9844961,22.8496124 C37.8139535,22.9550388 36.744186,23.3643411 36.4899225,24.1767442 C36.4556465,24.2860802 36.4389017,24.4001546 36.4403101,24.5147287 C36.3317143,24.5485979 36.2276025,24.5954482 36.1302326,24.6542636 C35.6217054,24.9643411 35.3426357,25.5255814 35.3054264,26.3596899 C35.2434109,26.9550388 35.2,28.2914729 35.9255814,28.8062016 C35.9255814,28.8465116 35.9255814,28.8899225 35.9255814,28.9333333 C35.9255814,31.7860465 36.7007752,33.5844961 38.2449612,34.3627907 L38.2449612,34.3627907 L38.0465116,35.3271318 L36.8341085,35.6682171 L36.7596899,34.4589147 C36.7361034,34.1841783 36.5339461,33.9580148 36.2635659,33.903876 L32.3472868,32.8031008 L32.1426357,31.7829457 L32.1426357,31.7829457 C33.2155039,31.2031008 33.8976744,30.1178295 34.2015504,28.4992248 C34.0092545,27.8872034 33.9324964,27.2447486 33.9751938,26.6046512 C33.9751938,26.4775194 33.9751938,26.3534884 34,26.2356589 C34.0248062,26.1178295 34.0155039,26.0899225 34.0217054,26.0155039 L34.0217054,26.0155039 C34.0673811,25.289835 34.3519447,24.5996867 34.8310078,24.0527132 C34.4713178,22.303876 33.3829457,20.1364341 29.5193798,20.3100775 C27.3550388,20.427907 26.275969,20.8372093 26.0310078,21.6496124 C25.9967318,21.7589485 25.9799869,21.8730228 25.9813953,21.9875969 C25.8727996,22.0214661 25.7686878,22.0683164 25.6713178,22.1271318 C25.1627907,22.4372093 24.8837209,22.9984496 24.8465116,23.8325581 C24.7844961,24.427907 24.7410853,25.7643411 25.4666667,26.2790698 C25.4666667,26.3193798 25.4666667,26.3627907 25.4666667,26.4062016 C25.4666667,29.2589147 26.2418605,31.0573643 27.7860465,31.8356589 L27.7860465,31.8356589 L27.5906977,32.8 L23.6341085,33.903876 C23.373381,33.9753041 23.1889626,34.2073953 23.1782946,34.4775194 L22.9736434,39.7302326 L24.2139535,39.7302326 L24.4,34.979845 L27.2713178,34.1736434 L27.3705426,34.1457364 C27.420155,34.3751938 27.4666667,34.6325581 27.5069767,34.9116279 C27.7085271,36.2263566 27.8170543,38.0372093 27.9100775,39.7054264 L28.7317829,39.7054264 C28.8651163,39.5844961 28.9984496,39.4728682 29.1410853,39.3612403 C29.0818199,37.5389909 28.8984494,35.7228978 28.5922481,33.9255814 L28.9426357,32.2294574 L28.9426357,32.2294574 C29.2603547,32.2818294 29.5818704,32.3077581 29.903876,32.3069767 C30.253274,32.3078319 30.6020166,32.2766942 30.9457364,32.2139535 L30.9457364,32.2139535 L31.2868217,33.8883721 C30.9600369,35.3675596 30.7577788,36.8715297 30.6821705,38.3844961 C31.0979805,38.184335 31.5281086,38.0153931 31.9689922,37.8790698 C32.0385203,36.8947443 32.1585752,35.914641 32.3286822,34.9426357 C32.3782946,34.6635659 32.4341085,34.3968992 32.4992248,34.1457364 L32.6139535,34.1767442 L35.4945736,34.9860465 L35.5565891,36.0217054 L34.0930233,36.4341085 C33.8374913,36.5037363 33.6543778,36.7279568 33.6372093,36.9922481 L33.6124031,37.420155 C34.3565891,37.2186047 35.1627907,37.0170543 35.6310078,36.9271318 L35.6310078,36.9271318 L35.6899225,36.9271318 L35.8635659,36.8992248 C35.9962688,36.8819349 36.1297838,36.8715849 36.2635659,36.8682171 C36.4310078,36.8682171 36.6449612,36.8837209 36.8837209,36.9054264 L36.979845,36.9054264 L37.7426357,36.6945736 L37.8542636,36.6635659 C37.8852713,36.7844961 37.9131783,36.9116279 37.9410853,37.0387597 C38.2511628,37.0914729 38.5612403,37.1503876 38.8713178,37.2155039 C39.0077519,37.2434109 39.1379845,37.2744186 39.2651163,37.3054264 C39.2093023,36.9953488 39.144186,36.6852713 39.0728682,36.3937984 L39.4108527,34.7379845 L39.4108527,34.7379845 C40.0738605,34.8499344 40.7509457,34.8499344 41.4139535,34.7379845 L41.724031,36.3193798 C41.724031,36.3193798 41.724031,36.3193798 41.724031,36.3348837 L41.724031,36.3348837 L41.8294574,36.2945736 C42.1927648,36.1692341 42.5783691,36.1216939 42.9612403,36.1550388 C43.0746071,36.1648949 43.1874097,36.1804182 43.2992248,36.2015504 C43.5317829,36.2449612 43.7674419,36.3007752 44.0062016,36.3627907 C44.1705426,36.4062016 44.3348837,36.4527132 44.5054264,36.5023256 L44.6511628,36.5488372 C44.827907,36.6077519 45.0046512,36.6666667 45.1906977,36.7317829 L45.1906977,36.7317829 L45.5255814,36.8527132 C46.0713178,37.0604651 46.6263566,37.2992248 47.2031008,37.5782946 L47.1782946,36.9922481 C47.1615532,36.7288142 46.9798916,36.5048477 46.7255814,36.4341085 L45.255814,36.0155039 L45.255814,36.0155039 L45.3178295,34.979845 L48.1984496,34.1705426 L48.3131783,34.1395349 C48.3782946,34.3906977 48.4341085,34.6573643 48.4868217,34.9364341 C48.6842377,36.0897603 48.8157173,37.2534067 48.8806202,38.4217054 L49.020155,38.496124 C49.4015504,38.703876 49.7829457,38.9271318 50.1705426,39.1565891 C50.1125896,37.3841534 49.8988461,35.6202502 49.5317829,33.8852713 L49.8697674,32.2263566 L49.8697674,32.2263566 C50.5327947,32.3380729 51.2098409,32.3380729 51.8728682,32.2263566 L51.8728682,32.2263566 L52.2232558,33.9379845 C51.9131783,35.4387597 51.7364341,37.8852713 51.6465116,40.0062016 L52.8868217,40.0062016 C52.9612403,38.2666667 53.0883721,36.3255814 53.3023256,34.9364341 C53.3426357,34.6573643 53.3891473,34.4 53.4387597,34.1705426 L53.5410853,34.1984496 L56.4186047,34.9767442 L56.6139535,39.9534884 L57.2155039,39.9534884 C57.4380131,39.9650527 57.6575198,40.0099993 57.8666667,40.0868217 L57.6465116,34.4744186 C57.6358436,34.2042945 57.4514252,33.9722033 57.1906977,33.9007752 L53.2651163,32.8 L53.0604651,31.7953488 L53.0604651,31.7953488 C54.5023256,31.020155 55.2310078,29.3147287 55.296124,26.6635659 C55.3593714,26.648846 55.4207455,26.627001 55.4790698,26.5984496 C55.8307595,26.401964 56.0160069,26.001429 55.9379845,25.6062016 L55.9379845,25.4976744 C55.7984496,23.8728682 55.4883721,20.0775194 50.4248062,20.3100775 C48.2604651,20.427907 47.1813953,20.8372093 46.9302326,21.6496124 C46.8959566,21.7589485 46.8792118,21.8730228 46.8806202,21.9875969 C46.7720244,22.0214661 46.6679126,22.0683164 46.5705426,22.1271318 C46.0620155,22.4372093 45.7829457,22.9984496 45.7457364,23.8325581 C45.7457364,23.9162791 45.7302326,24.0155039 45.724031,24.124031 C46.0277435,24.6358633 46.26037,25.1866561 46.4155039,25.7612403 C46.4341085,25.8273902 46.4516796,25.8925065 46.4682171,25.9565891 L46.4992248,26.0744186 C46.4992248,26.1395349 46.5271318,26.2015504 46.5426357,26.2635659 L46.5674419,26.3751938 C46.6654604,26.8874091 46.7317365,27.4051915 46.7658915,27.9255814 L46.7658915,28.0341085 C46.7973939,28.3751409 46.7594195,28.71902 46.6542636,29.0449612 C47.0077519,30.4093023 47.6775194,31.3364341 48.6728682,31.8356589 L48.4744186,32.8 L44.5395349,33.903876 C44.2829771,33.9738739 44.0996072,34.1996559 44.0837209,34.4651163 L44.0155039,35.6713178 L42.8031008,35.3302326 L42.5953488,34.3193798 C44.0341085,33.544186 44.7689922,31.848062 44.827907,29.1906977 Z M26.1395349,25.1937984 C26.0429206,24.7877856 26.0187772,24.3678994 26.0682171,23.9534884 C26.0682171,23.9534884 26.0682171,23.9286822 26.0682171,23.9131783 C26.0868217,23.475969 26.1922481,23.2589147 26.275969,23.2093023 C26.4385013,23.1665603 26.6111625,23.1864828 26.7596899,23.2651163 C27.051673,23.4492112 27.4376105,23.3617505 27.6217054,23.0697674 C27.8058003,22.7777843 27.7183397,22.3918469 27.4263566,22.2077519 C27.3560511,22.1508479 27.2944206,22.0839945 27.2434109,22.0093023 C27.3829457,21.9100775 27.8914729,21.6434109 29.5813953,21.5503876 C33.0821705,21.3736434 33.5689922,23.4697674 33.7302326,25.1162791 C33.420155,24.8744186 33.0542636,24.551938 32.8310078,24.3565891 C32.096124,23.7085271 31.7271318,23.379845 31.2620155,23.7364341 C31.0405206,23.8989653 30.9470243,24.1844407 31.0294574,24.4465116 C30.4410961,24.3386475 29.8999697,24.0529328 29.4790698,23.627907 C29.1689922,23.2899225 28.8403101,22.9550388 28.3875969,23.0077519 C27.9348837,23.0604651 27.7054264,23.4108527 27.4821705,23.7457364 C27.2001622,24.2134846 26.8441129,24.6323662 26.427907,24.9860465 C26.3395302,25.0654616 26.2428473,25.1351149 26.1395349,25.1937984 Z M29.9131783,31.0511628 C28.8713178,31.0511628 26.7069767,31.0511628 26.6883721,26.4 C26.6883721,26.3689922 26.6883721,26.3379845 26.6883721,26.3069767 C26.8840573,26.2069278 27.0672387,26.084113 27.2341085,25.9410853 C27.7379957,25.5093157 28.1693204,24.9994731 28.5116279,24.4310078 L28.5395349,24.4620155 C29.3612403,25.3922481 31.1348837,26.055814 31.9503876,25.5131783 C32.0027119,25.4787747 32.0515257,25.4393083 32.096124,25.3953488 C32.4775194,25.7333333 32.8124031,26.0155039 33.1162923,26.2356589 C33.1162923,26.2883721 33.1162923,26.3410853 33.1162923,26.4 C33.1224806,31.0511628 30.9550388,31.0511628 29.9131783,31.0511628 Z M47.0449612,25.1937984 C46.948347,24.7877856 46.9242035,24.3678994 46.9736434,23.9534884 C46.9736434,23.9534884 46.9736434,23.9286822 46.9736434,23.9131783 C46.9922481,23.475969 47.0976744,23.2589147 47.1813953,23.2093023 C47.3439277,23.1665603 47.5165888,23.1864828 47.6651163,23.2651163 C47.9519484,23.4228312 48.3119675,23.3304623 48.487439,23.0541357 C48.6629105,22.7778091 48.5934055,22.412686 48.3286822,22.220155 C48.2583767,22.163251 48.1967462,22.0963976 48.1457364,22.0217054 C48.2821705,21.9224806 48.8031008,21.6589147 50.4806202,21.5751938 C53.9844961,21.3984496 54.4713178,23.4945736 54.6294574,25.1410853 C54.3193798,24.8992248 53.9534884,24.5767442 53.7302326,24.3813953 C52.9953488,23.7333333 52.6263566,23.4046512 52.1612403,23.7612403 C51.9397454,23.9237715 51.8462491,24.2092469 51.9286822,24.4713178 C51.3403209,24.3634537 50.7991945,24.077739 50.3782946,23.6527132 C50.0682171,23.3147287 49.7395349,22.979845 49.2868217,23.0325581 C48.8341085,23.0852713 48.6108527,23.4108527 48.3875969,23.7457364 C48.1055886,24.2134846 47.7495392,24.6323662 47.3333333,24.9860465 C47.2449565,25.0654616 47.1482736,25.1351149 47.0449612,25.1937984 L47.0449612,25.1937984 Z M47.5937984,26.3968992 C47.5937984,26.3658915 47.5937984,26.3348837 47.5937984,26.303876 C47.7896023,26.2040289 47.9728067,26.0811986 48.1395349,25.9379845 C48.6464778,25.5078808 49.080964,24.9990608 49.4263566,24.4310078 L49.4542636,24.4620155 C50.275969,25.3922481 52.0496124,26.055814 52.8651163,25.5131783 C52.9174406,25.4787747 52.9662544,25.4393083 53.0108527,25.3953488 C53.3922481,25.7333333 53.7271318,26.0155039 54.0310078,26.2325581 C54.0310078,26.2883721 54.0310078,26.3379845 54.0310078,26.4 C54.0155039,31.0511628 51.8604651,31.0511628 50.8062016,31.0511628 C49.751938,31.0511628 47.6093023,31.0511628 47.5937984,26.3968992 L47.5937984,26.3968992 Z M36.5922481,27.7209302 C36.4956983,27.3149079 36.4715555,26.8950331 36.5209302,26.4806202 C36.5209302,26.4806202 36.5209302,26.455814 36.5209302,26.4403101 C36.5395349,26.0031008 36.6449612,25.7860465 36.7286822,25.7364341 C36.8912574,25.694302 37.063695,25.7141987 37.2124031,25.7922481 C37.4992352,25.949963 37.8592543,25.8575941 38.0347258,25.5812675 C38.2101973,25.3049409 38.1406924,24.9398178 37.875969,24.7472868 C37.8056635,24.6903828 37.744033,24.6235294 37.6930233,24.5488372 C37.8325581,24.4496124 38.3503876,24.1860465 40.027907,24.1023256 C43.5317829,23.9193798 44.0155039,26.0217054 44.1767442,27.6682171 C43.8666667,27.4263566 43.5007752,27.103876 43.2775194,26.9085271 C42.5426357,26.2604651 42.1736434,25.9317829 41.7085271,26.2883721 C41.4870322,26.4509033 41.3935359,26.7363786 41.475969,26.9984496 C40.8875416,26.8907763 40.346361,26.6050329 39.9255814,26.179845 C39.6155039,25.8418605 39.2868217,25.5100775 38.8341085,25.5596899 C38.3813953,25.6093023 38.1488372,25.9534884 37.9286822,26.2976744 C37.6466739,26.7654226 37.2906245,27.1843042 36.8744186,27.5379845 C36.7868267,27.6084018 36.6922806,27.669701 36.5922481,27.7209302 L36.5922481,27.7209302 Z M40.3658915,33.5782946 C39.324031,33.5782946 37.1596899,33.5782946 37.1410853,28.9271318 C37.1410853,28.896124 37.1410853,28.8651163 37.1410853,28.8341085 C37.3367705,28.7340596 37.5199519,28.6112448 37.6868217,28.4682171 C38.1937646,28.0381133 38.6282508,27.5292933 38.9736434,26.9612403 L39.0015504,26.9922481 C39.8232558,27.9224806 41.5968992,28.5860465 42.4124031,28.0434109 C42.4648246,28.0091405 42.5136511,27.9696637 42.5581395,27.9255814 C42.9395349,28.2635659 43.2744186,28.5457364 43.5782946,28.7658915 C43.5782946,28.8217054 43.5782946,28.8713178 43.5782946,28.9333333 C43.5751938,33.5782946 41.4077519,33.5782946 40.3658915,33.5782946 Z" id="Shape" fill="#000000" fill-rule="nonzero"></path>
                <path d="M57.1410853,41.1937984 L56.4434109,41.1937984 C55.2682171,41.1937984 51.8852713,41.227907 51.1224806,41.2186047 C50.1922481,40.6263566 49.2899225,40.0713178 48.4,39.5813953 C47.3327625,38.9757336 46.2240578,38.4462494 45.0821705,37.9968992 C44.4361698,37.741494 43.7675978,37.547359 43.0852713,37.4170543 L42.9085271,37.3922481 C42.6860545,37.3639766 42.4600595,37.3873188 42.248062,37.4604651 L42.2077519,37.4604651 C42.1395349,37.4852713 40.4372093,38.1891473 39.9503876,38.4403101 L39.5100775,38.6604651 C38.6139535,38.3503876 36.6294574,38.0403101 36.0155039,38.1116279 C35.4015504,38.1829457 33.0325581,38.8651163 32.5426357,38.9984496 C31.2949399,39.3412515 30.159987,40.0076752 29.2527132,40.9302326 C28.3658915,40.951938 25.0573643,40.9705426 22.9457364,40.9736434 C22.6940178,40.955961 22.4469957,41.048274 22.2685651,41.2267046 C22.0901345,41.4051352 21.9978215,41.6521573 22.0155039,41.903876 L22,52.4713178 C21.9885323,52.7253147 22.0815304,52.9729363 22.2573643,53.1565891 C22.4469158,53.3300418 22.6985335,53.4195059 22.9550388,53.4046512 C23.2341085,53.4046512 26.6356589,53.3705426 28.5736434,53.3612403 L28.5736434,53.3612403 C28.3130262,53.7438487 28.1955542,54.2060516 28.2418605,54.6666667 C28.4236754,55.8125574 29.375479,56.6793556 30.5333333,56.7534884 C30.6085906,56.7611581 30.6844326,56.7611581 30.7596899,56.7534884 C31.0800872,57.543192 31.8226458,58.0811559 32.6728682,58.1395349 C32.9898168,58.141858 33.3011637,58.0559692 33.572093,57.8914729 C33.9685384,58.5922544 34.6690971,59.0680839 35.4666667,59.1782946 C35.8306112,59.207337 36.1960713,59.1455391 36.5302326,58.9984496 C36.662095,59.2021844 36.8315156,59.3789711 37.0294574,59.5193798 C37.5522505,59.8328166 38.1501375,59.9988964 38.7596899,60 C38.8508576,59.9997099 38.9419443,59.9945345 39.0325581,59.9844961 C39.3426357,59.9534884 39.5968992,59.7395349 40.1736434,59.1782946 L40.2945736,59.0697674 C40.4527132,59.0697674 40.675969,59.0852713 40.7937984,59.0945736 C41.5478178,59.3309527 42.3705272,59.1570085 42.9643411,58.6356589 C43.6434109,58.6697674 44.5643411,58.5147287 45.0635659,57.5596899 C46.0806202,57.7178295 46.924031,57.3891473 47.4418605,56.6015504 C49.4635659,56.3627907 49.7550388,55.0852713 49.8697674,54.5891473 L49.8697674,54.5891473 C50.1147287,54.3751938 50.4186047,54.0806202 50.6852713,53.8139535 L50.9953488,53.503876 L56.8868217,53.5751938 L56.9302326,53.5751938 C57.0097515,53.5798333 57.0894733,53.5798333 57.1689922,53.5751938 C57.5690189,53.5464347 57.8939633,53.2409093 57.9472868,52.8434109 C57.9472868,52.7751938 57.9782946,42.1333333 57.9658915,41.9906977 C57.9345485,41.5535288 57.5790737,41.2100814 57.1410853,41.1937984 Z M30.7162791,55.5317829 L30.6914729,55.5317829 L30.6573643,55.5317829 C30.0574488,55.5055087 29.5586572,55.0611307 29.4635659,54.4682171 C29.4943979,54.2693665 29.5731485,54.0810035 29.6930233,53.9193798 L30.248062,53.4170543 C30.2996551,53.3782956 30.3474183,53.3346858 30.3906977,53.2868217 C30.8992248,52.8341085 31.448062,52.3565891 31.6837209,52.1550388 C31.9682971,52.1425094 32.2361443,52.2895862 32.3782946,52.5364341 C32.4619928,52.6547515 32.5142728,52.7923866 32.5302326,52.9364341 L30.7162791,55.5317829 Z M33.3178295,56.6108527 L33.3178295,56.6108527 C33.143052,56.7276094 32.954551,56.8223806 32.7565891,56.8930233 C32.3043899,56.8676149 31.9242838,56.5445246 31.8263566,56.1023256 L33.9286822,53.103876 C34.0403101,52.979845 35.7271318,51.1193798 35.8821705,50.9550388 C36.1002101,50.7709869 36.3889356,50.6936903 36.6697674,50.744186 C36.9909529,50.783486 37.2747975,50.9719496 37.4356589,51.2527132 C37.4516893,51.2825314 37.4651738,51.3136496 37.475969,51.3457364 L33.3178295,56.6108527 Z M36.4,57.6992248 C36.1739336,57.8187084 35.9315589,57.9043753 35.6806202,57.9534884 L35.6806202,57.9534884 C35.1977241,57.9015288 34.7810295,57.591679 34.5922481,57.144186 L34.5488372,57.0666667 C34.5488372,57.0666667 39.2930233,51.1379845 39.3457364,51.0790698 C39.5048057,50.8932989 39.7401123,50.7904951 39.9844961,50.8 C40.3385479,50.8106193 40.6689236,50.980364 40.8837209,51.2620155 C41.0883721,51.503876 40.8589147,52.1116279 40.744186,52.303876 L36.4,57.6992248 Z M41.3395349,57.9348837 L42.096124,57.0728682 C42.096124,57.3209302 42.096124,57.5565891 42.096124,57.724031 C41.8858358,57.8995644 41.6102993,57.9763533 41.3395349,57.9348837 Z M42.5364341,54.524031 C42.4581186,54.7272294 42.3400522,54.9127623 42.1891473,55.0697674 L42.1891473,55.0697674 C40.7689922,56.7286822 39.4387597,58.1705426 39.3054264,58.2945736 C39.172093,58.4186047 38.9302326,58.6573643 38.8031008,58.7596899 C38.4212431,58.7695815 38.0439063,58.6752472 37.7116279,58.4868217 C37.6440547,58.4247556 37.5865226,58.3525789 37.5410853,58.2728682 L41.5100775,53.3457364 L41.6465116,53.3457364 C41.7209302,53.3457364 41.7922481,53.3457364 41.8325581,53.3457364 C42.084049,53.3920173 42.3033218,53.544604 42.4341085,53.7643411 C42.577142,53.9883163 42.6145562,54.2638208 42.5364341,54.5178295 L42.5364341,54.524031 Z M43.351938,57.3829457 C43.351938,57.0139535 43.324031,56.5674419 43.3085271,56.179845 C43.3085271,56.0093023 43.2930233,55.8232558 43.2868217,55.6899225 C43.4791842,55.4526686 43.6272808,55.1827337 43.724031,54.8930233 C43.8973033,54.3184545 43.8249566,53.6977878 43.5241786,53.1784757 C43.2234005,52.6591636 42.7210366,52.2875566 42.1364341,52.151938 C42.2589443,51.7275922 42.2404469,51.2749502 42.0837209,50.8620155 C42.7937984,51.5968992 43.4666667,52.3348837 43.7023256,52.6015504 C43.900795,53.8872877 44.0044338,55.1858808 44.0124031,56.4868217 L44.0124031,56.8496124 C43.9230327,57.1453994 43.6601788,57.355189 43.351938,57.3767442 L43.351938,57.3829457 Z M56.7100775,52.3379845 L55.4697674,52.3224806 C55.4697674,52.0124031 55.4697674,51.5906977 55.4697674,51.0821705 C55.0688082,51.2258178 54.6304166,51.2258178 54.2294574,51.0821705 C54.2294574,51.5875969 54.2294574,52.0124031 54.2294574,52.2914729 L50.7813953,52.248062 C50.4899225,52.248062 50.3844961,52.344186 49.8325581,52.8899225 L49.7767442,51.5286822 C49.7054264,49.7984496 49.6713178,48.9736434 49.6651163,48.8868217 C49.6434109,48.6077519 49.6403101,48.5581395 45.7209302,44.5612403 C45.4811787,44.315495 45.0876058,44.3106361 44.8418605,44.5503876 C44.5961152,44.7901391 44.5912562,45.1837121 44.8310078,45.4294574 C45.3333333,45.9410853 47.8511628,48.5302326 48.4310078,49.1689922 C48.4496124,49.5968992 48.6449612,54.2604651 48.648062,54.3100775 L48.648062,54.3100775 C48.5705426,54.6511628 48.4465116,55.0790698 47.6713178,55.2651163 C47.6217054,54.5581395 47.3612403,50.6418605 47.3612403,50.579845 C47.3395349,50.2697674 47.3395349,50.2697674 43.8604651,46.8589147 L43.3457364,46.3503876 C43.1059849,46.103786 42.7117178,46.098233 42.4651163,46.3379845 C42.2185147,46.577736 42.2129617,46.9720031 42.4527132,47.2186047 C42.4651163,47.2868217 45.6248062,50.3875969 46.124031,50.9085271 C46.1426357,51.1782946 46.4341085,55.6186047 46.4620155,55.820155 C46.3472868,56.0372093 46.0713178,56.4589147 45.2496124,56.3255814 C45.2411103,54.9655666 45.1249855,53.6083578 44.9023256,52.2666667 C44.9023256,52.0372093 44.7937984,51.9193798 43.5534884,50.6046512 C43.0852713,50.0775194 42.1550388,49.1472868 41.5193798,48.551938 C41.3532098,48.4023849 41.1198768,48.3528429 40.907275,48.4219738 C40.6946732,48.4911048 40.535102,48.6684061 40.4886703,48.8870901 C40.4422386,49.1057741 40.5160005,49.3326175 40.6821705,49.4821705 C40.7968992,49.5875969 40.924031,49.7054264 41.0573643,49.8356589 C40.7411,49.6727282 40.3927495,49.58167 40.0372093,49.5689922 C39.4238863,49.5388851 38.830293,49.7900207 38.4248062,50.2511628 L38.3255814,50.3658915 C37.9684891,49.9135656 37.4532968,49.6133137 36.8837209,49.5255814 C36.240976,49.4188456 35.5837322,49.5990211 35.0852713,50.0186047 C35.0263566,50.0651163 35.0170543,50.0744186 33.4635659,51.7891473 L33.4170543,51.8387597 L33.3984496,51.8139535 C32.9549703,51.1388441 32.1484558,50.7973911 31.3550388,50.9488372 C31.227907,50.9705426 31.0976744,50.9922481 29.820155,52.1333333 C29.2837209,52.0899225 28.1736434,52.0868217 25.7488372,52.1333333 L25.7488372,46.951938 C25.347878,47.0955852 24.9094864,47.0955852 24.5085271,46.951938 L24.5085271,52.151938 L23.2682171,52.1705426 L23.2837209,42.2294574 L24.524031,42.2294574 L24.524031,43.4418605 C24.9249903,43.2982132 25.3633818,43.2982132 25.7643411,43.4418605 L25.7643411,42.2108527 C29.7953488,42.2108527 29.8170543,42.1674419 30.0093023,41.9534884 C30.7876321,41.1015202 31.7937215,40.4903343 32.9085271,40.1922481 C34.2449612,39.8170543 35.8418605,39.3953488 36.1736434,39.351938 C36.7827493,39.3671043 37.3890603,39.4397785 37.9844961,39.5689922 L36.8341085,40.2263566 C36.612726,40.3469079 36.4445613,40.5460503 36.3627907,40.7844961 C36.197416,41.2537468 36.0299742,41.7229974 35.8604651,42.1922481 C35.5937984,42.9426357 35.324031,43.696124 35.0635659,44.4465116 C35.0635659,44.4620155 34.5426357,46.1395349 34.6511628,46.648062 C34.7584641,47.1853085 35.1511097,47.6207881 35.6744186,47.7829457 C35.9727782,47.8906631 36.2874439,47.9462541 36.6046512,47.9472868 C37.1709137,47.9378456 37.7243686,47.7772687 38.2077519,47.4821705 C38.8385573,47.1054336 39.3971636,46.6192781 39.8573643,46.0465116 C40.5173769,45.2480344 41.0727694,44.3685762 41.5100775,43.4294574 C41.6403101,43.4604651 42.8310078,43.7395349 43.296124,43.8728682 C43.5137644,43.9380218 43.7496098,43.8789562 43.9108517,43.7189145 C44.0720937,43.5588729 44.1329199,43.3234754 44.0693944,43.1053543 C44.0058689,42.8872333 43.8281611,42.7213064 43.6062016,42.6728682 C43.1348837,42.5457364 42.675969,42.4310078 42.1891473,42.3162791 C41.9255814,42.2511628 41.6589147,42.1891473 41.3984496,42.1209302 C41.0431146,42.0224476 40.670849,42.2085804 40.5364341,42.551938 C40.1225954,43.5255485 39.5701053,44.4341806 38.896124,45.2496124 C38.5324013,45.7137848 38.0881107,46.1087098 37.5844961,46.4155039 C37.1456676,46.7165747 36.590335,46.7924586 36.0868217,46.620155 C35.9224806,46.5612403 35.8821705,46.5023256 35.8635659,46.4465116 C35.9432236,45.9127878 36.0645241,45.3861156 36.2263566,44.8713178 C36.4888889,44.118863 36.7534884,43.369509 37.020155,42.6232558 C37.1813953,42.1767442 37.3302326,41.7302326 37.5007752,41.2837209 C38.1023256,40.9426357 41.5534884,39.0387597 41.9131783,38.896124 C42.2056856,38.7578146 42.5208749,38.6737641 42.8434109,38.648062 C43.4561822,38.7607849 44.0564568,38.9331821 44.6356589,39.1627907 C45.7233259,39.5929752 46.7800877,40.0975272 47.7984496,40.6728682 C48.7100775,41.1782946 49.6589147,41.7457364 50.5891473,42.3596899 C50.7565891,42.4682171 50.7813953,42.4837209 54.2294574,42.4589147 C54.2294574,43.3271318 54.2294574,45.4604651 54.2294574,47.5658915 C54.6322517,47.4275017 55.0705582,47.4329805 55.4697674,47.5813953 C55.4697674,45.4821705 55.4697674,43.3550388 55.4697674,42.4496124 L56.7100775,42.4496124 C56.7286822,44.1085271 56.7286822,50.6325581 56.7100775,52.3317829 L56.7100775,52.3379845 Z" id="Shape" fill="#000000" fill-rule="nonzero"></path>
                <ellipse id="Oval" fill="#000000" fill-rule="nonzero" cx="25.1224806" cy="45.1844961" rx="1" ry="1"></ellipse>
                <ellipse id="Oval" fill="#000000" fill-rule="nonzero" cx="54.827907" cy="49.3302326" rx="1" ry="1"></ellipse>
            </g>
        </g>
    </g>
</svg>