<?xml version="1.0" encoding="UTF-8"?>
<svg width="75px" height="40px" viewBox="0 0 75 40" version="1.1" xmlns="http://www.w3.org/2000/svg" xmlns:xlink="http://www.w3.org/1999/xlink">
    <!-- Generator: Sketch 63.1 (92452) - https://sketch.com -->
    <title>mail</title>
    <desc>Created with Sketch.</desc>
    <g id="Page-1" stroke="none" stroke-width="1" fill="none" fill-rule="evenodd" opacity="0.807314918">
        <g id="Softcom_Apresentacao" transform="translate(-1158.000000, -25.000000)" fill="#FFFFFF" fill-rule="nonzero">
            <g id="mail" style="mix-blend-mode: soft-light;" transform="translate(1203.000000, 45.000000) rotate(45.000000) translate(-1203.000000, -45.000000) translate(1171.000000, 13.000000)">
                <path d="M62.395125,21.341625 L42.657125,1.6035 C40.52075,-0.532875 37.0445,-0.532875 34.908125,1.6035 L4.104875,32.406875 C3.03675,33.475125 2.502625,34.87825 2.502625,36.281375 C2.502625,37.6845 3.03675,39.087625 4.104875,40.155875 L9.05725,45.10825 L3.619375,50.546125 C3.37525,50.79025 3.25325,51.110125 3.25325,51.43 C3.25325,51.749875 3.37525,52.06975 3.619375,52.313875 C4.1075,52.802 4.899,52.802125 5.387125,52.313875 L10.825,46.876 L13.089875,49.141 L0.366125,61.864875 C0.122,62.108875 0,62.428875 0,62.74875 C0,63.068625 0.122,63.388625 0.366125,63.632625 C0.85425,64.12075 1.64575,64.12075 2.134,63.632625 L14.857875,50.90875 L23.842875,59.893875 C25.979375,62.030125 29.4555,62.030125 31.591875,59.893875 L62.395125,29.0905 C63.43,28.05575 64,26.679625 64,25.216125 C64,23.7525 63.43,22.3765 62.395125,21.341625 Z M26.809125,58.854125 C26.370625,58.7145 25.95775,58.473375 25.6105,58.126125 L5.872625,38.388125 C5.09375,37.609125 4.83975,36.50325 5.105375,35.508625 L26.809125,35.508625 L26.809125,58.854125 Z M22.29075,33.008625 L25.997375,29.302 C26.4855,28.813875 26.485625,28.022375 25.997375,27.53425 C25.509125,27.046125 24.71775,27.046 24.229625,27.53425 L18.755125,33.008625 L15.11325,33.008625 L26.414,21.707875 C26.902,21.21975 26.902125,20.42825 26.414,19.94 C25.925875,19.451875 25.134375,19.451875 24.646125,19.94 L11.57775,33.008625 L7.03875,33.008625 L35.509875,4.537375 L35.509875,30.02925 C35.509875,31.672125 34.173375,33.008625 32.5305,33.008625 L22.29075,33.008625 Z M60.6275,27.322875 L29.824125,58.126125 C29.66525,58.285 29.49175,58.420125 29.30925,58.535625 L29.30925,35.508625 L32.530625,35.508625 C35.551875,35.508625 38.01,33.050625 38.01,30.02925 L38.01,26.807875 L52.338,26.807875 L45.104625,34.041375 C44.860625,34.285375 44.7385,34.605375 44.7385,34.92525 C44.7385,35.24525 44.8605,35.565 45.104625,35.809125 C45.59275,36.29725 46.38425,36.29725 46.8725,35.809125 L55.87275,26.808875 C55.873,26.808625 55.87325,26.80825 55.8735,26.807875 L61.0395,26.807875 C60.922625,26.992125 60.7855,27.165 60.6275,27.322875 Z M38.009875,24.307875 L38.009875,2.604125 C39.004625,2.3385 40.1105,2.5925 40.889375,3.371375 L60.627375,23.109375 C60.968875,23.45075 61.2165,23.860625 61.359,24.307875 L38.009875,24.307875 Z" id="Shape"></path>
                <path d="M29.47375,16.88125 C29.24125,16.6475 28.91875,16.515 28.59,16.515 C28.26,16.515 27.93875,16.6475 27.70625,16.88125 C27.47375,17.11375 27.34,17.435 27.34,17.765 C27.34,18.09375 27.47375,18.41625 27.70625,18.64875 C27.93875,18.88125 28.26,19.015 28.59,19.015 C28.91875,19.015 29.24125,18.88125 29.47375,18.64875 C29.70625,18.41625 29.84,18.09375 29.84,17.765 C29.84,17.435 29.70625,17.11375 29.47375,16.88125 Z" id="Path"></path>
                <path d="M2.13875,53.79375 C1.90625,53.56125 1.58375,53.4275 1.255,53.4275 C0.92625,53.4275 0.60375,53.56125 0.37125,53.79375 C0.13875,54.02625 0.005,54.34875 0.005,54.6775 C0.005,55.00625 0.13875,55.32875 0.37125,55.56125 C0.60375,55.79375 0.92625,55.9275 1.255,55.9275 C1.585,55.9275 1.90625,55.79375 2.13875,55.56125 C2.3725,55.32875 2.505,55.00625 2.505,54.6775 C2.505,54.34875 2.3725,54.02625 2.13875,53.79375 Z" id="Path"></path>
                <path d="M15.87725,56.187125 C15.389,55.699 14.5975,55.699 14.109375,56.187125 L8.432375,61.864125 C8.188375,62.108125 8.06625,62.428125 8.06625,62.748 C8.06625,63.067875 8.18825,63.387875 8.432375,63.632 C8.920625,64.120125 9.712125,64.120125 10.20025,63.632 L15.87725,57.955 C16.36525,57.46675 16.36525,56.67525 15.87725,56.187125 Z" id="Path"></path>
            </g>
        </g>
    </g>
</svg>