<?xml version="1.0" encoding="UTF-8"?>
<svg width="80px" height="80px" viewBox="0 0 80 80" version="1.1" xmlns="http://www.w3.org/2000/svg" xmlns:xlink="http://www.w3.org/1999/xlink">
    <!-- Generator: Sketch 62 (91390) - https://sketch.com -->
    <title>Group 7</title>
    <desc>Created with Sketch.</desc>
    <g id="Page-1" stroke="none" stroke-width="1" fill="none" fill-rule="evenodd">
        <g id="Home_Final" transform="translate(-924.000000, -1242.000000)">
            <g id="Group-7" transform="translate(924.000000, 1242.000000)">
                <path d="M40,0 C62.09139,0 80,17.90861 80,40 C80,62.09139 62.09139,80 40,80 C17.90861,80 0,62.09139 0,40 C0,17.90861 17.90861,0 40,0 Z M40,8 C22.326888,8 8,22.326888 8,40 C8,57.673112 22.326888,72 40,72 C57.673112,72 72,57.673112 72,40 C72,22.326888 57.673112,8 40,8 Z" id="Combined-Shape" fill-opacity="0.2" fill="#FCD800"></path>
                <g id="noun_supermarket_2072497" transform="translate(21.000000, 20.000000)" fill="#000000" fill-rule="nonzero">
                    <polygon id="Rectangle" transform="translate(31.938312, 7.999773) rotate(-18.031000) translate(-31.938312, -7.999773) " points="31.2716452 5.89643932 32.6049785 5.89643932 32.6049785 10.103106 31.2716452 10.103106"></polygon>
                    <polygon id="Rectangle" transform="translate(29.984308, 12.666826) rotate(-18.035000) translate(-29.984308, -12.666826) " points="29.3176412 10.5634922 30.6509746 10.5634922 30.6509746 14.7701588 29.3176412 14.7701588"></polygon>
                    <path d="M6.21866667,12.818 C6.07795632,13.8365882 6.37543387,14.8671008 7.03733333,15.654 L8,16.8613333 C7.99688889,23.8426667 7.99688889,27.5555556 8,28 C8.00466667,28.6666667 9.33333333,28.6666667 9.33333333,28 C9.33333333,27.5555556 9.33333333,24.1931111 9.33333333,17.9126667 L10.2966667,18.5546667 C10.5206912,18.704133 10.8126421,18.704133 11.0366667,18.5546667 L12.6666667,17.4666667 L14.2966667,18.5533333 C14.5206912,18.7027997 14.8126421,18.7027997 15.0366667,18.5533333 L16.6666667,17.4666667 L18.2966667,18.5533333 C18.5206912,18.7027997 18.8126421,18.7027997 19.0366667,18.5533333 L20.6666667,17.4666667 L22.2966667,18.5533333 C22.5206912,18.7027997 22.8126421,18.7027997 23.0366667,18.5533333 L24.6666667,17.4666667 L26,18.3553333 L26,38.6666667 C16.6666667,38.6666667 11.7777778,38.6666667 11.3333333,38.6666667 C10.6666667,38.6666667 10.6666667,40 11.3333333,40 C11.7777778,40 18,40 30,40 C31.8400354,39.9977959 33.3311293,38.5067021 33.3333333,36.6666667 L33.3333333,16.6666667 C33.3315386,16.5200592 33.2811242,16.3781956 33.19,16.2633333 L37.0426667,6.00666667 C37.561142,4.62891802 37.3713319,3.08453083 36.5346667,1.87333333 C35.7400309,0.698250825 34.4125373,-0.00411349299 32.994,-0.000285527397 C31.1861661,0.0168557657 29.5758525,1.14651435 28.9446667,2.84066667 L27.8993333,5.62333333 L26.6666667,4.39066667 L26.6666667,2 C26.6666667,1.63181017 26.3681898,1.33333333 26,1.33333333 L18.6666667,1.33333333 C18.2984768,1.33333333 18,1.63181017 18,2 L18,3.144 C17.2464041,2.46089182 16.1095486,2.42227313 15.3113333,3.05266667 L15.3113333,2 C15.3113333,0.908685334 14.426648,0.024 13.3353333,0.024 C12.2440187,0.024 11.3593333,0.908685334 11.3593333,2 L11.3593333,3.05333333 C10.9945386,2.75079811 10.5352551,2.58567307 10.0613333,2.58666667 C9.51097792,2.58534631 8.98364078,2.80739566 8.6,3.202 C7.80921306,4.0168273 7.80420685,5.31107959 8.58866667,6.132 L9.20933333,6.77266667 C8.98339362,6.87620488 8.77825317,7.02011949 8.604,7.19733333 L8.59333333,7.20666667 C8.43803723,7.36622044 8.30969829,7.54994776 8.21333333,7.75066667 L7.45333333,6.34733333 L6.28066667,6.982 L8.00466667,10.164 C7.92733333,10.208 7.85,10.2506667 7.77666667,10.3006667 C7.74933333,10.3193333 7.72533333,10.3406667 7.69866667,10.3593333 L5.11866667,7.982 L4.21466667,8.96266667 L6.77733333,11.3253333 C6.48305238,11.7754699 6.2922503,12.2852621 6.21866667,12.818 Z M20.2966667,16.112 L18.6666667,17.2 L17.0366667,16.1133333 C16.8126421,15.963867 16.5206912,15.963867 16.2966667,16.1133333 L14.682,17.19 C14.678,17.1233333 14.6666538,17.0653333 14.6666538,17.0013333 C14.6623969,15.5360653 15.7199257,14.2832928 17.1651289,14.0415984 C18.6103321,13.799904 20.0179388,14.6404098 20.4906667,16.0273333 C20.4219333,16.0451298 20.3564546,16.0737065 20.2966667,16.112 Z M22,16.7546667 L21.9873333,16.746 C21.9071094,15.3446774 21.1521963,14.0693121 19.9622814,13.3248369 C18.7723664,12.5803617 17.2952793,12.4592667 16,13 L16,8.66666667 L22,8.66666667 L22,16.7546667 Z M32,36.6666667 C32,37.7712362 31.1045695,38.6666667 30,38.6666667 L27.3333333,38.6666667 L27.3333333,18.3566667 L28.6666667,17.4666667 L30.2966667,18.5533333 C30.5206912,18.7027997 30.8126421,18.7027997 31.0366667,18.5533333 L32,17.9126667 L32,36.6666667 Z M30.1926667,3.30933333 C30.627322,2.13424318 31.7411908,1.3485442 32.994,1.33332817 C33.9738067,1.33150154 34.8902864,1.81735824 35.4386667,2.62933333 C36.0272128,3.48181633 36.1602443,4.56873908 35.7946667,5.538 L31.6666667,16.5333333 L30.6666667,17.2 L29.0366667,16.1133333 C28.8126421,15.963867 28.5206912,15.963867 28.2966667,16.1133333 L26.6666667,17.2 L25.314,16.298 L30.1926667,3.30933333 Z M27.3846667,6.994 L23.8466667,16.412 L23.3333333,16.7546667 L23.3333333,8.276 L26,5.60933333 L27.3846667,6.994 Z M19.3333333,2.66666667 L25.3333333,2.66666667 L25.3333333,4 L19.3333333,4 L19.3333333,2.66666667 Z M18.9426667,5.33333333 L24.3906667,5.33333333 L22.3906667,7.33333333 L16.9426667,7.33333333 L18.9426667,5.33333333 Z M9.55133333,4.13733333 C9.68508282,3.99926144 9.86910229,3.92132378 10.0613333,3.92133333 L10.0613333,3.92133333 C10.2535334,3.92147636 10.4374958,3.99938987 10.5713333,4.13733333 L11.55,5.13733333 C11.7401175,5.33122241 12.0288358,5.39042437 12.279917,5.28700352 C12.5309983,5.18358267 12.6942612,4.93820876 12.6926667,4.66666667 L12.6926667,2 C12.6818877,1.76341392 12.8019672,1.54003714 13.0052486,1.41852244 C13.2085301,1.29700774 13.4621366,1.29700774 13.665418,1.41852244 C13.8686995,1.54003714 13.988779,1.76341392 13.978,2 L13.978,4.66666667 C13.9783147,4.93718269 14.1420678,5.18069037 14.3924828,5.28301992 C14.6428978,5.38534946 14.930324,5.32621157 15.12,5.13333333 L16.102,4.13333333 C16.3830519,3.85648866 16.8342814,3.85648866 17.1153333,4.13333333 C17.4049679,4.42990503 17.4049679,4.90342831 17.1153333,5.2 L15.1513333,7.2 L15.1713333,7.22 L14.862,7.52933333 L14.862,7.52933333 C14.8083459,7.58466787 14.764799,7.64897291 14.7333333,7.71933333 C14.724,7.74 14.7186667,7.76066667 14.7113333,7.782 C14.691384,7.83875616 14.6792723,7.89796899 14.6753333,7.958 C14.6753333,7.97266667 14.6673333,7.98466667 14.6673333,7.99933333 L14.6673333,13.88 C14.5156032,14.024982 14.3747765,14.1809609 14.246,14.3466667 L12.9866667,11.6666667 C12.5218975,10.7417606 11.6814951,10.0616662 10.68,9.8 C10.4467603,9.73973581 10.2079559,9.70354655 9.96733333,9.692 L9.79666667,9.492 C9.66333333,9.33933333 9.56266667,9.22 9.54666667,9.20333333 C9.37417167,9.02303723 9.29964277,8.77038427 9.34666667,8.52533333 C9.37130686,8.38620063 9.4354055,8.25707772 9.53133333,8.15333333 L9.54333333,8.142 L9.56,8.124 C9.80143042,7.88750944 10.1755134,7.85246523 10.4566667,8.04 C10.7394519,8.22906371 11.1192279,8.17490167 11.3378872,7.91432407 C11.5565466,7.65374647 11.5439535,7.27033452 11.3086667,7.02466667 L9.54666667,5.206 C9.26053285,4.90650575 9.26259481,4.43431722 9.55133333,4.13733333 Z M7.54,13 C7.62686962,12.353793 7.98469689,11.7751117 8.524,11.4086667 C9.05881212,11.0466956 9.72343441,10.9321313 10.3485704,11.0941563 C10.9737063,11.2561814 11.4990077,11.6791544 11.7906667,12.2553333 L13.49,15.8746667 C13.4479413,16.0306585 13.4147768,16.1889134 13.3906667,16.3486667 L13.0393333,16.114 C12.8153088,15.9645336 12.5233579,15.9645336 12.2993333,16.114 L10.6666667,17.2 L9.188,16.2133333 L9.04533333,16.034 L10.764,14.7053333 L9.948,13.6506667 L8.21466667,14.9913333 L8.06666667,14.8066667 C7.64249425,14.3065721 7.4510045,13.6496896 7.54,13 L7.54,13 Z" id="Shape"></path>
                    <path d="M1.42333333,38.3373333 C1.9299149,39.3591793 2.97348352,40.0040406 4.114,40.0000189 C4.58089309,39.9991928 5.04129525,39.8905945 5.45933333,39.6826667 L6,39.412 L6.54133333,39.6826667 C6.95910389,39.8906767 7.41930963,39.9992825 7.886,40.0000189 C9.02651648,40.0040406 10.0700851,39.3591793 10.5766667,38.3373333 L10.8093333,37.8706667 C11.5899776,36.3043969 11.9975014,34.5786953 12,32.8286667 C11.9977957,30.8991612 10.4341722,29.3355376 8.50466667,29.3333333 C7.85409289,29.335124 7.21715179,29.5199455 6.66666667,29.8666667 L6.66666667,29.3333333 C6.66666667,27.860574 5.47275933,26.6666667 4,26.6666667 L4,28 C4.73637967,28 5.33333333,28.5969537 5.33333333,29.3333333 L5.33333333,29.8666667 C4.78284821,29.5199455 4.14590711,29.335124 3.49533333,29.3333333 C1.56582783,29.3355376 0.00220431157,30.8991612 0,32.8286667 C0.00229279904,34.5791458 0.409822163,36.305327 1.19066667,37.872 L1.42333333,38.3373333 Z M3.49533333,30.6666586 C4.06903342,30.6650948 4.61950734,30.8931586 5.024,31.3 L5.52866667,31.8046667 C5.7889999,32.0649213 6.2110001,32.0649213 6.47133333,31.8046667 L6.976,31.3 C7.59432423,30.6817552 8.52416957,30.4968221 9.33200168,30.8314245 C10.1398338,31.1660269 10.6666667,31.9542803 10.6666667,32.8286667 C10.6649208,34.3723186 10.305522,35.8945722 9.61666667,37.276 L9.384,37.7426667 C9.1012641,38.310707 8.52051107,38.6689285 7.886,38.6666773 C7.62616513,38.6662543 7.3699415,38.6057919 7.13733333,38.49 L6.298,38.07 C6.11039283,37.9762524 5.88960717,37.9762524 5.702,38.07 L4.86333333,38.49 C4.63045775,38.6057099 4.37403762,38.6661648 4.114,38.6666773 C3.47904155,38.6685521 2.89817398,38.3094844 2.616,37.7406667 L2.38333333,37.274 C1.69477868,35.893177 1.33538809,34.3716428 1.33333333,32.8286667 C1.33480262,31.6352362 2.30190283,30.668136 3.49533333,30.6666586 Z" id="Shape"></path>
                </g>
            </g>
        </g>
    </g>
</svg>