<?xml version="1.0" encoding="UTF-8"?>
<svg width="20px" height="20px" viewBox="0 0 20 20" version="1.1" xmlns="http://www.w3.org/2000/svg" xmlns:xlink="http://www.w3.org/1999/xlink">
    <!-- Generator: Sketch 63.1 (92452) - https://sketch.com -->
    <title>telephone</title>
    <desc>Created with Sketch.</desc>
    <g id="Page-1" stroke="none" stroke-width="1" fill="none" fill-rule="evenodd">
        <g id="Softcom_Franquia" transform="translate(-993.000000, -3589.000000)" fill="#231F20" fill-rule="nonzero">
            <g id="Group-34" transform="translate(216.000000, 3579.000000)">
                <g id="telephone" transform="translate(777.000000, 10.000000)">
                    <path d="M14.1593033,19.9822131 C14.2494672,19.9863115 14.3355328,19.9904098 14.4256967,19.9904098 C15.3888115,19.9904098 16.1920902,19.6420492 16.8232377,18.957623 C16.8273361,18.9535246 16.8355328,18.9453279 16.8396311,18.9412295 C17.065041,18.6707377 17.3191393,18.4248361 17.5896311,18.1666393 C17.7740574,17.9904098 17.962582,17.810082 18.1388115,17.6215574 C18.9789754,16.7445082 18.974877,15.6338525 18.1306148,14.7895902 L15.7945492,12.4535246 C15.3929098,12.0354918 14.9134016,11.8141803 14.4052049,11.8141803 C13.9011066,11.8141803 13.4175,12.0313934 13.0035656,12.4453279 L11.622418,13.8264754 C11.4994672,13.7568033 11.372418,13.6953279 11.2494672,13.6338525 C11.0937295,13.5559836 10.9502869,13.4822131 10.8232377,13.4043443 C9.55684426,12.6010656 8.40930328,11.5518852 7.31094262,10.2035246 C6.75766393,9.50680328 6.39290984,8.92483607 6.13471311,8.32647541 C6.49536885,7.99860656 6.83143443,7.65844262 7.15520492,7.32647541 C7.27405738,7.20762295 7.39290984,7.08467213 7.51586066,6.96172131 C8.39290984,6.08467213 8.39290984,4.99860656 7.51586066,4.12565574 L6.35602459,2.96581967 C6.22077869,2.83057377 6.08963115,2.69532787 5.95848361,2.56418033 C5.70028689,2.30188525 5.43389344,2.02729508 5.1675,1.78139344 C4.76586066,1.3797541 4.29045082,1.1707377 3.78635246,1.1707377 C3.28635246,1.1707377 2.8027459,1.3797541 2.38471311,1.78139344 L0.929795082,3.23221311 C0.397008197,3.765 0.0937295082,4.41254098 0.0281557377,5.16254098 C-0.0456147541,6.09696721 0.126516393,7.08877049 0.569139344,8.2854918 C1.25356557,10.1338525 2.2822541,11.8510656 3.80684426,13.6871311 C5.66340164,15.9002459 7.89290984,17.6502459 10.4420902,18.8838525 C11.4134016,19.3469672 12.712582,19.8879508 14.1593033,19.9822131 Z M4.58143443,13.0436885 C3.13061475,11.2977869 2.15930328,9.67483607 1.51586066,7.93713115 C1.11831967,6.86745902 0.970778689,6.0354918 1.0322541,5.2445082 C1.07733607,4.73221311 1.27405738,4.30598361 1.64290984,3.94122951 L3.08963115,2.4945082 C3.31094262,2.28139344 3.5527459,2.1707377 3.79045082,2.1707377 C4.02405738,2.1707377 4.25356557,2.28139344 4.47487705,2.49860656 C4.73307377,2.74040984 4.98307377,2.9945082 5.24536885,3.26090164 C5.37651639,3.39614754 5.5117623,3.5354918 5.65110656,3.6707377 L6.81094262,4.83057377 C7.28635246,5.30598361 7.28635246,5.77319672 6.81094262,6.24860656 C6.6879918,6.37155738 6.56504098,6.4945082 6.44618852,6.61745902 C6.08553279,6.98221311 5.74946721,7.32647541 5.37651639,7.65844262 C5.36831967,7.66663934 5.36422131,7.6707377 5.35602459,7.67893443 C5.02405738,8.01090164 5.0732377,8.33057377 5.15520492,8.56827869 C5.15930328,8.58057377 5.16340164,8.58877049 5.1675,8.60106557 C5.46668033,9.32237705 5.88881148,10.0068033 6.53635246,10.8264754 C7.70438525,12.265 8.93389344,13.3838525 10.2945492,14.2486066 C10.462582,14.3551639 10.6388115,14.4453279 10.8109426,14.5313934 C10.9666803,14.6092623 11.110123,14.6830328 11.2371721,14.7609016 C11.2535656,14.7690984 11.2658607,14.7772951 11.2822541,14.7854918 C11.4134016,14.8510656 11.5404508,14.8838525 11.6715984,14.8838525 C11.9953689,14.8838525 12.2002869,14.6789344 12.2658607,14.6092623 L13.7207787,13.1543443 C13.9420902,12.9330328 14.1797951,12.8182787 14.4134016,12.8182787 C14.7002869,12.8182787 14.9338934,12.9986066 15.0855328,13.1543443 L17.4297951,15.4986066 C18.0035656,16.072377 17.7412705,16.5887705 17.4175,16.9289344 C17.2535656,17.1051639 17.0814344,17.2690984 16.9011066,17.4453279 C16.6265164,17.707623 16.3437295,17.9822131 16.0855328,18.2895902 C15.6429098,18.765 15.1183197,18.9863115 14.4338934,18.9863115 C14.3683197,18.9863115 14.2986475,18.9822131 14.2330738,18.9781148 C12.9584836,18.8961475 11.7781557,18.4002459 10.8888115,17.9781148 C8.46258197,16.810082 6.34372951,15.1502459 4.58143443,13.0436885 Z" id="Shape"></path>
                    <path d="M10.9871721,3.65844262 C10.712582,3.61336066 10.4543852,3.79778689 10.4093033,4.06827869 C10.3642213,4.34286885 10.5486475,4.60106557 10.8191393,4.64614754 C11.9461885,4.83877049 12.9707787,5.37155738 13.7904508,6.18713115 C14.6060246,7.00270492 15.1388115,8.03139344 15.3314344,9.15844262 C15.372418,9.40434426 15.5855328,9.57647541 15.8273361,9.57647541 C15.8560246,9.57647541 15.8847131,9.57237705 15.9134016,9.56827869 C16.1879918,9.52319672 16.372418,9.26090164 16.3232377,8.99040984 C16.0978279,7.65844262 15.4666803,6.44122951 14.5035656,5.47811475 C13.5322541,4.51090164 12.3191393,3.88385246 10.9871721,3.65844262 Z" id="Path"></path>
                    <path d="M19.474877,9.40434426 C19.5035656,9.40434426 19.5322541,9.4002459 19.5609426,9.39614754 C19.8355328,9.35106557 20.019959,9.08877049 19.9707787,8.81827869 C19.5978279,6.61336066 18.5568443,4.6092623 16.962582,3.015 C15.3642213,1.4207377 13.360123,0.379754098 11.1552049,0.00680327869 C10.8806148,-0.0382786885 10.622418,0.146147541 10.5773361,0.416639344 C10.5322541,0.691229508 10.7166803,0.94942623 10.9871721,0.994508197 C12.9830738,1.33467213 14.8027459,2.27729508 16.2494672,3.72401639 C17.6961885,5.1707377 18.6388115,6.99040984 18.9789754,8.98631148 C19.019959,9.23221311 19.2330738,9.40434426 19.474877,9.40434426 Z" id="Path"></path>
                </g>
            </g>
        </g>
    </g>
</svg>