<?xml version="1.0" encoding="UTF-8"?>
<svg width="32px" height="33px" viewBox="0 0 32 33" version="1.1" xmlns="http://www.w3.org/2000/svg" xmlns:xlink="http://www.w3.org/1999/xlink">
    <!-- Generator: Sketch 63.1 (92452) - https://sketch.com -->
    <title>Group 55</title>
    <desc>Created with Sketch.</desc>
    <g id="Page-1" stroke="none" stroke-width="1" fill="none" fill-rule="evenodd">
        <g id="Softcom_Trabalhe-Conosco" transform="translate(-1083.000000, -2427.000000)">
            <g id="Footer" transform="translate(-1.000000, 2101.000000)">
                <g id="Group-55" transform="translate(1084.000000, 326.907975)">
                    <circle id="Oval-Copy-2" fill="#FFFFFF" cx="16" cy="16" r="16"></circle>
                    <path d="M25.2204516,10.2590291 C24.4985161,9.36477422 23.1656129,9 20.6200645,9 L11.3797419,9 C8.77593548,9 7.42045161,9.38830371 6.70122581,10.3403738 C6,11.2686456 6,12.6363809 6,14.5293614 L6,18.1373725 C6,21.8046778 6.832,23.6666667 11.3797419,23.6666667 L20.620129,23.6666667 C22.8276129,23.6666667 24.0508387,23.3447833 24.8421935,22.5556044 C25.6537419,21.7463247 26,20.4249761 26,18.1373725 L26,14.5293614 C26,12.5330528 25.9457419,11.1572503 25.2204516,10.2590291 Z M18.8400645,16.8314861 L14.6440645,19.1166023 C14.5502581,19.1676949 14.4476774,19.1930396 14.3452258,19.1930396 C14.2292258,19.1930396 14.1134839,19.1605016 14.0109677,19.0958292 C13.8179355,18.9739464 13.7000645,18.755929 13.7000645,18.5207686 L13.7000645,13.9651916 C13.7000645,13.7304346 13.8176129,13.5126188 14.0102581,13.3906689 C14.2029677,13.2687189 14.4426452,13.2603828 14.6425806,13.3686184 L18.8385806,15.6390119 C19.0520645,15.754508 19.186129,15.9841558 19.186452,16.2347112 C19.1867097,16.4854683 19.0532258,16.7154521 18.8400645,16.8314861 Z" id="XMLID_823_" fill="#231F20" fill-rule="nonzero"></path>
                </g>
            </g>
        </g>
    </g>
</svg>