<?xml version="1.0" encoding="UTF-8"?>
<svg width="80px" height="80px" viewBox="0 0 80 80" version="1.1" xmlns="http://www.w3.org/2000/svg" xmlns:xlink="http://www.w3.org/1999/xlink">
    <!-- Generator: Sketch 62 (91390) - https://sketch.com -->
    <title>Group 45</title>
    <desc>Created with Sketch.</desc>
    <g id="Page-1" stroke="none" stroke-width="1" fill="none" fill-rule="evenodd">
        <g id="Home_Final" transform="translate(-497.000000, -1423.000000)">
            <g id="Group-45" transform="translate(497.000000, 1423.000000)">
                <g id="Group-4-Copy" fill="#FCD800" fill-opacity="0.2">
                    <path d="M40,0 C62.09139,0 80,17.90861 80,40 C80,62.09139 62.09139,80 40,80 C17.90861,80 0,62.09139 0,40 C0,17.90861 17.90861,0 40,0 Z M40,8 C22.326888,8 8,22.326888 8,40 C8,57.673112 22.326888,72 40,72 C57.673112,72 72,57.673112 72,40 C72,22.326888 57.673112,8 40,8 Z" id="Combined-Shape"></path>
                </g>
                <g id="Group" transform="translate(24.000000, 24.000000)" fill="#000000">
                    <path d="M24.184842,0.0575893333 C23.7920453,0.0575893333 23.4736206,0.376013971 23.4736206,0.768810667 C23.4736206,1.16160736 23.7920453,1.480032 24.184842,1.480032 L30.2935033,1.480032 L30.2935033,7.58829867 C30.2880383,7.84591779 30.4223504,8.08634123 30.6445889,8.21675426 C30.8668273,8.34716728 31.1422237,8.34716728 31.3644621,8.21675426 C31.5867006,8.08634123 31.7210127,7.84591779 31.7155477,7.58829867 L31.7155477,0.768615111 C31.7154614,0.375966353 31.3971814,0.0576815674 31.0045326,0.0575893333 L24.184842,0.0575893333 Z" id="Path"></path>
                    <path d="M0.995474489,0.0575893333 C0.6028199,0.0576733239 0.284530791,0.375960523 0.284444444,0.768615111 L0.284444444,7.58829867 C0.279116597,7.84583153 0.413460833,8.08611485 0.635645222,8.21644389 C0.857829611,8.34677292 1.13311937,8.34677292 1.35530376,8.21644389 C1.57748814,8.08611485 1.71183238,7.84583153 1.70650453,7.58829867 L1.70650453,1.480032 L7.81515307,1.480032 C8.20794976,1.480032 8.5263744,1.16160736 8.5263744,0.768810667 C8.5263744,0.376013971 8.20794976,0.0575893333 7.81515307,0.0575893333 L0.995474489,0.0575893333 Z" id="Path"></path>
                    <path d="M0.9848416,23.2370417 C0.59248842,23.2430338 0.279063783,23.5656125 0.28437619,23.9579733 L0.28437619,30.7776711 C0.28452294,31.1703313 0.602814348,31.4886271 0.995474489,31.4887111 L7.81515307,31.4887111 C8.07257276,31.4938594 8.31267246,31.3594732 8.44289145,31.1373596 C8.57311045,30.9152461 8.57311045,30.6400961 8.44289145,30.4179826 C8.31267246,30.1958691 8.07257276,30.0614828 7.81515307,30.0666311 L1.70650453,30.0666311 L1.70650453,23.9579733 C1.70913847,23.7658548 1.63392589,23.5808448 1.4979886,23.4450601 C1.36205132,23.3092753 1.17695701,23.2342704 0.9848416,23.2370417 L0.9848416,23.2370417 Z" id="Path"></path>
                    <path d="M30.993898,23.2370419 C30.6015458,23.2430352 30.2881226,23.5656134 30.2935033,23.9579733 L30.2935033,30.0666311 L24.184842,30.0666311 C23.9274223,30.0614828 23.6873226,30.1958691 23.5571036,30.4179826 C23.4268846,30.6400961 23.4268846,30.9152461 23.5571036,31.1373596 C23.6873226,31.3594732 23.9274223,31.4938594 24.184842,31.4887111 L31.0045326,31.4887111 C31.3971869,31.4886189 31.7154692,31.1703254 31.7156147,30.7776711 L31.7156147,23.9579733 C31.7181816,23.7658572 31.6429708,23.5808492 31.5070364,23.4450648 C31.371102,23.3092805 31.1860111,23.234274 30.993898,23.2370419 L30.993898,23.2370419 Z" id="Path"></path>
                    <path d="M16.0763218,9.05387378 C11.1763396,9.07918933 6.28954489,11.166048 1.45409956,15.1205333 C0.905512889,15.5307378 1.03339911,15.9897956 1.46519289,16.4094222 C6.29840889,20.3673244 11.1782596,22.4619022 16.076304,22.4872178 C20.9954009,22.5128178 25.8633166,20.45984 30.6318606,16.3649778 C31.0261611,16.0133333 31.0269184,15.5413689 30.565194,15.1205333 C25.817642,11.0702862 20.9723822,9.02856889 16.076304,9.05387378 L16.0763218,9.05387378 Z M16.0763218,10.476096 C20.406608,10.4537316 24.7457806,12.1672427 29.1318784,15.7649778 C24.7438571,19.3720533 20.4080907,21.08736 16.0763218,21.0649956 C11.7566347,21.0425956 7.38420089,19.2785067 2.92076622,15.7649778 C7.38378133,12.2582898 11.7566773,10.4984178 16.0763218,10.476096 Z" id="Shape"></path>
                    <path d="M16.0068882,11.4981404 C13.6491307,11.4981404 11.7391719,13.4231467 11.7391719,15.7662578 C11.7391719,18.12064 13.6524946,20.0343822 16.0068882,20.0343822 C18.3499936,20.0343822 20.2749952,18.1240178 20.2749952,15.7662578 C20.2749952,13.4197618 18.3533828,11.4981404 16.0068882,11.4981404 Z M16.0068882,12.9205796 C17.5813134,12.9205796 18.8525575,14.1918258 18.8525575,15.7662578 C18.8525575,17.35744 17.5847022,18.6119111 16.0068882,18.6119111 C14.4123559,18.6119111 13.1612192,17.3607822 13.1612192,15.7662578 C13.1612192,14.1884409 14.4157198,12.9205796 16.0068882,12.9205796 L16.0068882,12.9205796 Z" id="Shape"></path>
                </g>
            </g>
        </g>
    </g>
</svg>